<svg xmlns="http://www.w3.org/2000/svg" version="1.1" xmlns:xlink="http://www.w3.org/1999/xlink" xmlns:svgjs="http://svgjs.dev/svgjs" viewBox="0 0 800 800"><defs><linearGradient x1="50%" y1="0%" x2="50%" y2="100%" id="ccchaos-grad"><stop stop-color="hsl(206, 75%, 49%)" stop-opacity="1" offset="0%"></stop><stop stop-color="hsl(331, 90%, 56%)" stop-opacity="1" offset="100%"></stop></linearGradient></defs><g stroke-width="2" stroke="url(#ccchaos-grad)" fill="none" stroke-linecap="round"><path d="M420.77 -276.31C433.01 -276.25 445.11 -275.85 457.05 -275.16 468.97 -274.48 480.72 -273.53 492.26 -272.34 503.75 -271.19 515.01 -269.79 526 -268.15 536.91 -266.5 547.5 -264.56 557.73 -262.32 567.84 -260.03 577.54 -257.41 586.8 -254.48 595.88 -251.52 604.49 -248.28 612.59 -244.82 620.5 -241.42 627.9 -237.85 634.79 -234.14 641.54 -230.57 647.84 -226.87 653.72 -223.03 659.61 -219.27 665.23 -215.31 670.67 -211.09 676.38 -206.79 682.14 -202.12 688.1 -197.05 694.66 -191.77 701.71 -186.03 709.4 -179.86 718.03 -173.47 727.55 -166.7 738.08 -159.62 749.74 -152.48 762.5 -145.17 776.35 -137.77 791.19 -130.55 806.92 -123.36 823.36 -116.26 840.19 -109.48 857.2 -102.82 874.01 -96.28 890.23 -90.05 905.5 -83.87 919.39 -77.67 931.61 -71.61 941.76 -65.4 949.54 -58.97 955.02 -52.45 957.91 -45.56 958.26 -38.27 956.64 -30.7 953.04 -22.64 947.91 -14.09 942.29 -5.19 936.41 4.19 931.02 14.04 927.23 24.21 925.35 34.76 926.01 45.64 929.9 56.73 937.03 68.05 947.46 79.54 961.09 91.09 977.35 102.73 995.56 114.4 1014.88 126.02 1034.23 137.62 1052.48 149.17 1068.65 160.6 1081.66 171.95 1090.65 183.23 1095.34 194.35 1095.29 205.41 1090.61 216.42 1082.21 227.27 1070.61 238.1 1056.94 248.93 1043 259.63 1029.81 270.36 1018.79 281.15 1011.55 291.85 1008.65 302.64 1010.67 313.54 1017.93 324.38 1029.76 335.36 1045.31 346.51 1063.43 357.62 1082.39 368.93 1100.45 380.43 1116.09 391.92 1127.62 403.63 1133.83 415.57 1134.33 427.51 1128.82 439.55 1117.92 451.68 1102.92 463.82 1085.03 476.05 1065.94 488.37 1047.5 500.68 1031.15 513.05 1018.23 525.46 1009.87 537.85 1006.39 550.23 1007.8 562.57 1013.96 574.83 1023.73 586.98 1035.94 598.96 1049.66 610.77 1063.07 622.32 1074.8 633.53 1084.07 644.46 1089.54 654.93 1090.63 664.87 1087.36 674.41 1079.55 683.31 1067.66 691.49 1052.52 699.2 1034.89 706.14 1015.84 712.3 996.46 718.01 977.75 722.99 960.6 727.29 945.82 731.36 933.88 734.97 925.05 738.24 918.33 743.49 921.95 756.25 928.97 765.1 934.46 772.64 939.4 781.45 943.2 791.66 945.76 803.4 946.27 816.55 944.49 831.03 940.58 846.63 934.21 863.07 925.51 880.01 914.82 896.97 902.24 913.53 888.12 929.16 872.83 943.38 856.7 955.7 840.12 965.67 823.35 973.16 806.75 977.85 790.6 979.66 775.03 979.08 760.27 976.14 746.42 971.31 733.52 965.65 721.62 959.55 710.65 953.82 700.66 949.71 691.48 947.6 682.98 948.19 675.24 952.2 667.95 959.59 660.98 970.34 654.46 984.21 648.03 1000.45 641.56 1018.19 635.28 1036.4 628.79 1053.84 622.02 1069.3 615.24 1081.84 608.09 1090.46 600.52 1094.53 592.86 1094.15 584.74 1089.28 576.18 1080.5 567.49 1069.24 558.36 1056.4 548.81 1043.45 539.15 1032.3 529.1 1023.94 518.68 1019.5 508.19 1019.98 497.37 1025.32 486.25 1035.21 475.08 1049.02 463.65 1065.26 451.97 1082.33 440.28 1098.64 428.36 1112.27 416.24 1121.7 404.12 1126.1 391.95 1124.69 379.76 1117.72 367.58 1106.18 355.37 1091.07 343.16 1073.96 330.96 1056.73 318.76 1040.88 306.57 1027.85 294.41 1018.94 282.27 1014.59 270.16 1014.92 258.09 1019.88 246.08 1028.36 234.13 1039.2 222.25 1051.45 210.47 1063.27 198.8 1073.31 187.24 1080.78 175.82 1084.39 164.59 1083.65 153.49 1078.67 142.6 1069.42 131.95 1056.5 121.46 1040.86 111.23 1023.38 101.26 1005.2 91.46 987.43 81.93 971.03 72.67 956.8 63.53 945.43 54.62 937.15 45.94 932.02 37.29 930.11 28.79 930.78 20.43 933.44 12 937.79 3.63 942.71 -4.69 947.46 -13.17 951.73 -21.65 954.51 -30.13 955.31 -38.76 954.13 -47.37 950.41 -55.9 944.14 -64.5 935.59 -72.94 924.75 -81.15 911.96 -89.24 897.64 -96.99 882.13 -104.31 865.87 -111.37 849.25 -117.93 832.69 -123.99 816.53 -129.78 801 -135.12 786.38 -140.06 772.82 -144.95 760.41 -149.64 749.18 -154.27 739.08 -159.18 730.17 -164.26 722.21 -169.63 715.06 -175.55 708.78 -181.85 703 -188.53 697.52 -195.72 692.51 -203.11 687.5 -210.54 682.36 -218.01 677.31 -225.13 671.91 -231.65 666.07 -237.59 660.09 -242.56 653.58 -246.4 646.49 -249.34 639.17 -251.12 631.27 -251.83 622.81 -251.95 614.11 -251.44 604.89 -250.58 595.21 -250 585.32 -249.7 575.04 -249.98 564.4 -251.31 553.63 -253.56 542.57 -256.72 531.28 -260.96 519.91 -265.82 508.35 -270.97 496.64 -276.31 484.9 -281.17 473.04 -285.15 461.09 -288.18 449.13 -289.71 437.09 -289.59 424.98 -288.14 412.88 -285.19 400.85 -281.06 388.9 -276.38 376.95 -271.27 365.06 -266.18 353.23 -261.71 341.38 -257.91 329.58 -254.99 317.8 -253.28 305.98 -252.49 294.18 -252.46 282.37 -253.25 270.5 -254.27 258.61 -255.2 246.7 -256 234.72 -256.08 222.71 -255.2 210.67 -253.48 198.58 -250.55 186.47 -246.41 174.36 -241.41 162.24 -235.43 150.16 -228.68 138.15 -221.61 126.2 -214.23 114.39 -206.78 102.75 -199.64 91.29 -192.76 80.08 -186.26 69.17 -180.37 58.54 -174.9 48.28 -169.79 38.44 -165.17 28.93 -160.7 19.88 -156.27 11.3 -151.95 3.02 -147.4 -4.8 -142.5 -12.2 -137.39 -19.41 -131.78 -26.3 -125.65 -32.9 -119.19 -39.51 -112.21 -45.98 -104.76 -52.37 -97.09 -58.98 -89.06 -65.64 -80.75 -72.4 -72.4 -79.5 -63.91 -86.75 -55.33 -94.15 -46.87 -101.86 -38.39 -109.67 -29.91 -117.52 -21.6 -125.51 -13.28 -133.4 -4.94 -141.1 3.27 -148.72 11.58 -156 20 -162.89 28.41 -169.52 37.01 -175.7 45.82 -181.4 54.73 -186.86 63.89 -191.9 73.33 -196.56 82.93 -201.12 92.81 -205.42 102.96 -209.52 113.3 -213.7 123.89 -217.76 134.71 -221.73 145.69 -225.85 156.87 -229.88 168.23 -233.79 179.7 -237.79 191.3 -241.59 203.03 -245.16 214.81 -248.7 226.69 -251.94 238.63 -254.85 250.6 -257.69 262.63 -260.21 274.69 -262.42 286.76 -264.59 298.86 -266.5 310.99 -268.16 323.12 -269.84 335.28 -271.3 347.45 -272.51 359.63 -273.75 371.83 -274.72 384.05 -275.38 396.27 -276.03 408.51 -276.34 420.76 -276.31" stroke-dasharray="10 1" transform="rotate(0, 400, 400)" opacity="0.49"></path><path d="M410.26 -249.43C421.75 -249.54 433.01 -249.41 444.03 -249.03 455.02 -248.68 465.75 -248.06 476.19 -247.16 486.59 -246.23 496.68 -244.98 506.43 -243.41 516.12 -241.74 525.46 -239.73 534.43 -237.36 543.32 -234.9 551.83 -232.12 559.96 -229.04 568.02 -225.95 575.71 -222.63 583.06 -219.14 590.38 -215.77 597.42 -212.29 604.21 -208.74 611.11 -205.38 617.86 -201.95 624.57 -198.43 631.55 -195.03 638.65 -191.47 645.97 -187.68 653.79 -183.84 662.02 -179.66 670.78 -175.08 680.26 -170.27 690.43 -164.99 701.38 -159.23 713.15 -153.2 725.75 -146.72 739.16 -139.84 753.3 -132.81 768.12 -125.5 783.48 -118.01 799.14 -110.59 814.98 -103.12 830.72 -95.69 846.05 -88.53 860.72 -81.5 874.41 -74.61 886.85 -68.08 897.74 -61.69 906.78 -55.41 913.97 -49.42 919.02 -43.44 921.86 -37.41 922.86 -31.49 921.88 -25.38 919.17 -19.03 915.48 -12.57 910.9 -5.75 905.95 1.46 901.61 8.95 898.09 16.89 896 25.29 896.16 34.01 898.7 43.19 903.96 52.79 912.25 62.7 923.36 72.97 937.07 83.56 953 94.37 970.49 105.42 988.75 116.66 1006.94 128.02 1024.12 139.5 1039.31 151.06 1051.81 162.64 1060.8 174.25 1065.78 185.86 1066.77 197.44 1063.6 208.98 1056.62 220.5 1046.87 231.95 1034.9 243.35 1021.84 254.73 1009.29 266.03 998.11 277.31 989.46 288.58 984.61 299.79 983.92 311.01 987.71 322.25 996.12 333.45 1008.43 344.69 1023.8 356 1041.17 367.28 1058.99 378.63 1075.74 390.08 1090.14 401.52 1100.72 413.05 1106.45 424.69 1107.03 436.32 1102.15 447.92 1092.33 459.46 1078.69 471.01 1062.2 482.49 1044.33 493.89 1026.69 505.26 1010.55 516.52 997.14 527.64 987.57 538.69 982.26 549.54 981.35 560.16 984.94 570.66 992.18 580.85 1002.18 590.7 1014.25 600.35 1026.83 609.59 1038.7 618.35 1049.14 626.87 1056.77 634.86 1060.88 642.29 1061.34 649.46 1057.62 656.05 1049.91 662.07 1038.73 667.88 1024.51 673.19 1008.04 678.04 990.25 682.86 971.96 687.39 954.05 691.76 937.35 696.4 922.49 701.14 909.93 706.14 900.11 711.82 893.05 718.08 888.67 725.08 886.99 733.14 887.44 742.19 889.52 752.33 893.07 763.68 897.18 776.15 901.28 789.71 905.23 804.2 908.16 819.47 909.69 835.27 909.86 851.26 908.09 867.13 904.28 882.48 898.67 896.93 891.04 910.08 881.57 921.51 870.55 931.05 858.08 938.32 844.46 943.15 829.96 945.76 814.84 946.01 799.4 944.1 783.81 940.78 768.35 936.19 753.21 930.93 738.46 926.04 724.3 921.85 710.8 919.07 697.98 918.6 685.88 920.65 674.49 925.56 663.8 933.65 653.73 944.64 644.21 958.21 635.27 973.86 626.71 990.76 618.45 1007.98 610.59 1024.59 602.86 1039.5 595.17 1051.75 587.7 1060.73 580.15 1065.73 572.46 1066.48 564.84 1063.37 556.99 1056.54 548.88 1046.74 540.77 1035.37 532.34 1023.29 523.6 1011.8 514.82 1002.53 505.7 996.23 496.25 993.76 486.75 995.86 476.93 1002.29 466.8 1012.67 456.63 1026.36 446.16 1041.98 435.41 1058.09 424.65 1073.32 413.61 1086 402.33 1094.81 391.05 1099.06 379.67 1098.03 368.22 1091.9 356.79 1081.54 345.31 1067.72 333.79 1051.8 322.3 1035.41 310.81 1019.85 299.32 1006.46 287.88 996.48 276.48 990.43 265.13 988.6 253.86 991.13 242.66 997.24 231.57 1006.05 220.59 1016.87 209.73 1028.12 199.03 1038.55 188.47 1047.44 178.08 1053.43 167.9 1055.85 157.86 1054.62 148.05 1049.33 138.47 1040.27 129.03 1028.08 119.82 1013.32 110.85 996.86 101.99 979.69 93.34 962.67 84.89 946.67 76.48 932.46 68.23 920.54 60.11 911.23 51.95 904.84 43.87 901.15 35.85 899.88 27.71 900.93 19.59 903.5 11.48 906.98 3.21 911.14 -5.04 915 -13.26 918 -21.61 920.03 -29.87 920.33 -38 918.65 -46.14 915.1 -54.05 909.35 -61.7 901.48 -69.21 891.78 -76.36 880.32 -83.12 867.39 -89.67 853.34 -95.8 838.45 -101.54 823.07 -107.12 807.45 -112.4 791.93 -117.45 776.76 -122.55 762.08 -127.59 748.1 -132.66 734.92 -138.04 722.61 -143.61 711.2 -149.41 700.65 -155.66 691 -162.15 682.11 -168.84 673.85 -175.81 666.32 -182.78 659.22 -189.58 652.42 -196.26 646.07 -202.44 639.81 -207.95 633.53 -212.88 627.45 -216.9 621.19 -219.94 614.67 -222.26 608.17 -223.66 601.31 -224.26 594.08 -224.51 586.77 -224.35 579.03 -224.03 570.88 -224.07 562.62 -224.43 553.94 -225.33 544.86 -227.14 535.69 -229.68 526.15 -232.93 516.26 -237.01 506.3 -241.51 496.03 -246.14 485.47 -250.85 474.87 -255.07 464.01 -258.47 452.91 -261.05 441.8 -262.35 430.47 -262.22 418.94 -260.98 407.4 -258.46 395.8 -254.89 384.16 -250.83 372.52 -246.34 360.83 -241.75 349.1 -237.62 337.38 -233.96 325.62 -230.94 313.82 -228.92 302.02 -227.63 290.18 -227 278.31 -227.13 266.46 -227.54 254.57 -227.98 242.68 -228.46 230.82 -228.45 218.96 -227.74 207.14 -226.44 195.39 -224.15 183.7 -220.85 172.11 -216.81 160.65 -211.83 149.34 -206.07 138.23 -199.9 127.31 -193.27 116.64 -186.37 106.27 -179.57 96.16 -172.81 86.4 -166.22 77.02 -160.06 67.93 -154.18 59.25 -148.58 51 -143.42 43 -138.45 35.4 -133.58 28.19 -128.93 21.13 -124.18 14.38 -119.24 7.89 -114.24 1.4 -108.9 -4.94 -103.16 -11.2 -97.2 -17.66 -90.8 -24.15 -83.97 -30.72 -76.94 -37.63 -69.54 -44.69 -61.82 -51.92 -54.02 -59.5 -46.01 -67.23 -37.85 -75.07 -29.75 -83.15 -21.57 -91.23 -13.35 -99.24 -5.28 -107.27 2.79 -115.07 10.89 -122.56 18.84 -129.86 26.82 -136.73 34.86 -143.12 42.82 -149.22 50.89 -154.82 59.09 -159.94 67.31 -164.82 75.72 -169.3 84.33 -173.45 93.04 -177.55 101.99 -181.44 111.19 -185.19 120.53 -189.07 130.13 -192.9 139.97 -196.7 149.97 -200.7 160.2 -204.67 170.64 -208.56 181.23 -212.59 192 -216.46 202.93 -220.13 213.98 -223.8 225.16 -227.16 236.45 -230.2 247.82 -233.13 259.28 -235.69 270.79 -237.89 282.36 -239.98 293.97 -241.74 305.6 -243.17 317.27 -244.56 328.94 -245.69 340.6 -246.56 352.28 -247.46 363.94 -248.13 375.55 -248.58 387.18 -249.09 398.75 -249.37 410.25 -249.43" stroke-dasharray="6 3" transform="rotate(4.04, 400, 400)" opacity="0.46"></path><path d="M394.88 -222.54C405.52 -222.81 415.93 -222.92 426.09 -222.83 436.23 -222.78 446.12 -222.47 455.73 -221.86 465.32 -221.18 474.64 -220.12 483.68 -218.67 492.69 -217.07 501.44 -215.05 509.92 -212.63 518.4 -210.07 526.64 -207.16 534.66 -203.94 542.74 -200.7 550.65 -197.26 558.45 -193.68 566.38 -190.24 574.29 -186.74 582.22 -183.23 590.42 -179.95 598.76 -176.67 607.33 -173.37 616.3 -170.25 625.63 -167.03 635.38 -163.65 645.66 -160.27 656.46 -156.6 667.84 -152.58 679.79 -148.35 692.33 -143.66 705.46 -138.49 719.06 -133 733.12 -127.01 747.54 -120.56 762.14 -113.85 776.82 -106.77 791.39 -99.38 805.62 -91.92 819.33 -84.32 832.27 -76.63 844.26 -69.11 855.04 -61.65 864.37 -54.3 872.25 -47.27 878.4 -40.4 882.71 -33.71 885.46 -27.37 886.44 -21.16 885.76 -15.06 884.01 -9.21 881.14 -3.36 877.48 2.53 873.86 8.35 870.35 14.36 867.46 20.59 865.98 26.92 866.02 33.58 868.01 40.6 872.44 47.84 879.29 55.5 888.61 63.56 900.4 71.91 914.29 80.67 929.89 89.81 946.67 99.23 963.93 108.99 980.91 119.06 996.89 129.35 1011.05 139.9 1022.66 150.64 1031.29 161.54 1036.4 172.6 1037.73 183.76 1035.6 195.01 1030.03 206.32 1021.49 217.68 1011.1 229.07 999.41 240.48 987.44 251.87 976.61 263.28 967.58 274.67 961.28 286.02 958.7 297.38 959.99 308.7 965.29 319.99 974.6 331.28 987.19 342.54 1002.22 353.76 1018.76 364.99 1035.43 376.19 1050.9 387.36 1064.12 398.54 1073.8 409.68 1079.08 420.79 1079.72 431.89 1075.42 442.82 1066.62 453.56 1054.27 464.28 1039.16 474.8 1022.53 485.08 1005.79 495.34 990.04 505.33 976.4 515.05 965.91 524.7 959.06 534.03 956.1 543.02 957.28 551.92 962.01 560.44 969.67 568.55 979.76 576.56 991 584.14 1002.35 591.31 1013.16 598.36 1022.12 605.01 1028.48 611.27 1031.96 617.49 1031.87 623.39 1028.11 629.02 1021 634.76 1010.63 640.36 997.52 645.92 982.39 651.8 965.86 657.84 948.69 664.15 931.64 671.05 915.36 678.44 900.44 686.43 887.4 695.26 876.51 704.85 867.93 715.29 861.85 726.64 858.04 738.85 856.25 751.88 856.43 765.63 857.94 779.99 860.33 794.79 863.51 809.76 866.67 824.71 869.38 839.34 871.66 853.33 872.8 866.4 872.55 878.2 871.06 888.56 867.89 897.15 863 903.76 856.66 908.49 848.69 911.12 839.25 911.72 828.6 910.77 816.81 908.27 804.11 904.58 790.69 900.56 776.76 896.35 762.54 892.55 748.12 890.05 733.74 889.06 719.53 890.07 705.53 893.66 691.91 899.79 678.73 908.54 665.97 919.89 653.73 933.36 641.98 948.47 630.71 964.59 619.9 980.9 609.52 996.51 599.56 1010.67 589.92 1022.5 580.56 1031.28 571.5 1036.74 562.61 1038.43 553.82 1036.34 545.22 1031.09 536.64 1022.94 528.01 1012.7 519.49 1001.73 510.87 990.77 502.1 980.94 493.37 973.62 484.46 969.32 475.35 968.67 466.25 972.18 456.92 979.52 447.37 990.23 437.81 1003.67 428.03 1018.61 418.02 1033.75 408 1047.94 397.76 1059.71 387.32 1067.93 376.87 1072.02 366.36 1071.32 355.8 1065.99 345.26 1056.73 334.69 1044.18 324.12 1029.46 313.58 1013.99 303.06 998.9 292.57 985.38 282.15 974.61 271.79 967.15 261.51 963.4 251.32 963.65 241.23 967.4 231.28 974.02 221.42 983.05 211.72 993.16 202.2 1003.31 192.77 1012.83 183.53 1020.4 174.49 1025.27 165.54 1027.2 156.79 1025.57 148.24 1020.36 139.76 1011.96 131.46 1000.58 123.33 986.85 115.22 971.55 107.24 955.38 99.39 939.13 91.49 923.57 83.67 909.31 75.91 896.84 68.04 886.63 60.19 878.78 52.35 873.29 44.36 870.26 36.38 869.24 28.4 869.84 20.29 871.93 12.21 874.73 4.2 877.72 -3.87 880.79 -11.82 883.12 -19.61 884.33 -27.35 884.46 -34.84 882.93 -42.05 879.61 -49.12 874.7 -55.86 867.95 -62.26 859.5 -68.49 849.6 -74.41 838.3 -80.02 825.88 -85.57 812.58 -90.93 798.61 -96.15 784.25 -101.48 769.68 -106.81 755.13 -112.2 740.81 -117.87 726.79 -123.68 713.26 -129.64 700.29 -135.91 687.91 -142.28 676.19 -148.68 665.1 -155.2 654.66 -161.55 644.81 -167.6 635.47 -173.43 626.68 -178.71 618.27 -183.32 610.16 -187.41 602.45 -190.71 594.88 -193.19 587.38 -195.14 580.11 -196.39 572.78 -197.06 565.34 -197.56 558 -197.83 550.45 -198.05 542.67 -198.67 534.92 -199.6 526.87 -200.98 518.53 -203.14 510.17 -205.84 501.49 -209.07 492.49 -212.92 483.47 -217.01 474.12 -221.11 464.47 -225.22 454.79 -228.84 444.82 -231.71 434.55 -233.9 424.28 -234.97 413.72 -234.85 402.91 -233.81 392.09 -231.67 381.15 -228.63 370.11 -225.15 359.08 -221.24 347.95 -217.17 336.75 -213.41 325.58 -209.95 314.34 -206.95 303.07 -204.72 291.83 -203.07 280.57 -201.95 269.31 -201.51 258.11 -201.35 246.93 -201.28 235.81 -201.36 224.78 -201.13 213.84 -200.41 203.03 -199.3 192.34 -197.43 181.82 -194.73 171.51 -191.44 161.37 -187.33 151.47 -182.47 141.86 -177.18 132.47 -171.37 123.38 -165.17 114.65 -158.92 106.13 -152.54 97.97 -146.16 90.18 -140.03 82.57 -134.04 75.31 -128.22 68.37 -122.75 61.53 -117.42 54.95 -112.21 48.59 -107.23 42.19 -102.23 35.92 -97.14 29.72 -92.08 23.34 -86.79 16.92 -81.22 10.42 -75.53 3.61 -69.48 -3.34 -63.07 -10.47 -56.49 -17.95 -49.56 -25.61 -42.32 -33.42 -34.98 -41.5 -27.4 -49.65 -19.61 -57.82 -11.84 -66.07 -3.95 -74.2 4.01 -82.11 11.87 -89.89 19.76 -97.32 27.67 -104.34 35.43 -111.05 43.2 -117.28 50.99 -122.98 58.64 -128.37 66.34 -133.28 74.11 -137.73 81.8 -142 89.61 -145.94 97.55 -149.61 105.49 -153.31 113.61 -156.88 121.91 -160.39 130.28 -164.11 138.86 -167.84 147.66 -171.6 156.56 -175.61 165.69 -179.63 175.02 -183.61 184.48 -187.74 194.14 -191.73 203.98 -195.52 213.93 -199.29 224.05 -202.74 234.31 -205.83 244.67 -208.77 255.15 -211.29 265.71 -213.39 276.35 -215.32 287.06 -216.85 297.81 -218.02 308.61 -219.11 319.44 -219.92 330.25 -220.46 341.11 -221.06 351.93 -221.48 362.71 -221.74 373.51 -222.14 384.24 -222.41 394.87 -222.54" stroke-dasharray="11 2" transform="rotate(8.08, 400, 400)" opacity="0.83"></path><path d="M381.93 -195.66C391.81 -196.07 401.53 -196.38 411.08 -196.55 420.63 -196.79 430.01 -196.77 439.23 -196.45 448.44 -196.02 457.51 -195.19 466.43 -193.92 475.37 -192.44 484.19 -190.49 492.92 -188.09 501.71 -185.5 510.45 -182.52 519.17 -179.2 528.01 -175.83 536.9 -172.25 545.88 -168.54 555.07 -164.96 564.42 -161.36 573.99 -157.77 583.85 -154.46 594 -151.2 604.49 -147.98 615.33 -145.01 626.56 -142.02 638.2 -138.96 650.19 -135.98 662.58 -132.79 675.34 -129.31 688.37 -125.7 701.66 -121.67 715.15 -117.19 728.67 -112.4 742.17 -107.1 755.51 -101.29 768.5 -95.15 781.04 -88.55 792.92 -81.54 804.03 -74.33 814.17 -66.83 823.14 -59.13 830.98 -51.44 837.43 -43.68 842.38 -35.94 846.07 -28.41 848.27 -20.99 849.03 -13.72 848.81 -6.78 847.47 -0.02 845.25 6.55 842.8 12.8 840.1 18.92 837.52 24.94 835.78 30.73 834.92 36.51 835.33 42.35 837.56 48.09 841.63 53.98 847.72 60.07 856.06 66.21 866.45 72.64 878.77 79.37 892.78 86.26 908.04 93.5 924.05 101.09 940.26 108.9 956.03 117.07 970.66 125.57 983.64 134.31 994.3 143.36 1002.15 152.7 1007.04 162.24 1008.61 172.02 1006.87 182.01 1002.32 192.16 995.09 202.48 985.74 212.92 975.39 223.48 964.51 234.13 954.01 244.84 945.12 255.63 938.3 266.45 934.27 277.28 933.78 288.15 936.8 299.02 943.35 309.85 953.32 320.71 965.98 331.52 980.55 342.28 996.2 353.05 1011.71 363.75 1025.94 374.36 1038.03 384.99 1046.86 395.51 1051.7 405.93 1052.4 416.34 1048.64 426.5 1040.79 436.41 1029.67 446.3 1015.9 455.92 1000.53 465.25 984.77 474.56 969.56 483.57 955.91 492.28 944.8 500.95 936.7 509.31 931.99 517.35 930.98 525.35 933.32 533.05 938.59 540.45 946.5 547.85 956.01 554.97 966.26 561.85 976.74 568.8 986.24 575.56 994 582.21 999.72 589.02 1002.58 595.81 1002.3 602.65 999.02 609.82 992.56 617.17 983.21 624.8 971.46 632.91 957.7 641.44 942.51 650.46 926.57 660.1 910.42 670.34 894.67 681.2 879.85 692.71 866.38 704.83 854.57 717.55 844.73 730.75 836.89 744.36 831.02 758.27 827.21 772.26 825.1 786.21 824.39 799.88 825.07 813.05 826.52 825.5 828.37 836.97 830.61 847.32 832.57 856.27 833.94 863.64 834.71 871.52 828.82 876.44 821.65 874.16 815.26 871.54 807.56 868.3 798.68 864.86 788.85 862.01 778.08 859.89 766.54 858.94 754.4 859.85 741.78 862.66 728.85 867.62 715.67 875 702.42 884.59 689.21 896.23 676.05 909.65 663.08 924.32 650.37 939.64 637.87 955 625.7 969.63 613.87 982.8 602.31 993.95 591.1 1002.42 580.19 1007.75 569.55 1009.95 559.19 1008.79 549.06 1004.45 539.14 997.69 529.39 988.85 519.78 978.72 510.32 968.58 500.93 959.02 491.58 950.99 482.32 945.61 473.06 943.21 463.76 944.2 454.51 948.93 445.19 956.97 435.79 967.84 426.41 980.95 416.93 995.15 407.35 1009.34 397.78 1022.51 388.09 1033.4 378.31 1041.04 368.52 1044.97 358.75 1044.58 349.02 1039.97 339.29 1031.77 329.6 1020.44 319.97 1006.93 310.36 992.45 300.83 977.97 291.38 964.54 281.97 953.25 272.66 944.68 263.48 939.28 254.34 937.46 245.34 938.93 236.49 943.3 227.69 950.29 219.04 958.85 210.56 968.11 202.11 977.53 193.83 985.88 185.71 992.4 177.61 996.78 169.65 998.25 161.84 996.56 154 991.92 146.27 984.23 138.65 973.86 130.95 961.39 123.32 947.28 115.74 932.19 108.04 916.81 100.37 901.71 92.71 887.48 84.89 874.64 77.07 863.5 69.25 854.28 61.28 847.23 53.33 842.2 45.41 839.05 37.38 837.79 29.43 837.88 21.59 838.95 13.73 840.93 6.03 843.12 -1.45 845.11 -8.86 846.91 -16.02 847.84 -22.9 847.66 -29.64 846.48 -36.09 843.84 -42.24 839.69 -48.29 834.24 -54.07 827.3 -59.63 818.97 -65.19 809.5 -70.61 798.9 -75.94 787.37 -81.4 775.11 -86.87 762.26 -92.37 749.04 -98.1 735.56 -103.9 722.01 -109.74 708.54 -115.78 695.19 -121.8 682.12 -127.71 669.41 -133.63 657.04 -139.29 645.1 -144.58 633.61 -149.61 622.55 -154.11 611.91 -158 601.67 -161.47 591.82 -164.27 582.29 -166.42 573.03 -168.21 564.08 -169.49 555.3 -170.36 546.64 -171.2 538.19 -171.91 529.77 -172.64 521.34 -173.75 513.02 -175.14 504.62 -176.88 496.11 -179.24 487.65 -181.99 479.03 -185.09 470.23 -188.65 461.45 -192.3 452.46 -195.88 443.26 -199.42 434.05 -202.48 424.63 -204.88 414.97 -206.7 405.32 -207.59 395.44 -207.47 385.35 -206.62 375.25 -204.84 365.07 -202.27 354.82 -199.34 344.59 -195.98 334.3 -192.41 323.98 -189.06 313.69 -185.86 303.39 -182.95 293.1 -180.64 282.87 -178.75 272.67 -177.26 262.55 -176.35 252.5 -175.68 242.55 -175.12 232.73 -174.77 223.02 -174.24 213.47 -173.36 204.12 -172.27 194.9 -170.61 185.91 -168.3 177.17 -165.55 168.58 -162.1 160.26 -157.99 152.23 -153.49 144.34 -148.46 136.75 -143.01 129.46 -137.41 122.27 -131.58 115.35 -125.62 108.68 -119.78 102.05 -113.95 95.62 -108.16 89.35 -102.63 83 -97.18 76.74 -91.8 70.53 -86.63 64.11 -81.46 57.66 -76.23 51.12 -71.09 44.29 -65.78 37.31 -60.28 30.17 -54.71 22.69 -48.86 15.04 -42.72 7.23 -36.45 -0.85 -29.86 -9.04 -22.98 -17.29 -15.99 -25.66 -8.74 -33.97 -1.27 -42.14 6.22 -50.24 13.88 -58.06 21.65 -65.53 29.36 -72.74 37.14 -79.49 44.95 -85.76 52.63 -91.67 60.32 -97.08 68.01 -101.97 75.55 -106.58 83.1 -110.76 90.66 -114.57 98.1 -118.28 105.57 -121.75 113.11 -125.06 120.57 -128.5 128.12 -131.91 135.78 -135.33 143.43 -139.04 151.21 -142.82 159.16 -146.67 167.13 -150.8 175.27 -154.95 183.59 -159.08 191.97 -163.34 200.53 -167.45 209.27 -171.34 218.08 -175.15 227.06 -178.62 236.19 -181.68 245.4 -184.53 254.75 -186.92 264.21 -188.85 273.74 -190.55 283.37 -191.82 293.09 -192.7 302.84 -193.48 312.66 -193.97 322.52 -194.22 332.41 -194.55 342.31 -194.76 352.22 -194.87 362.14 -195.18 372.05 -195.44 381.92 -195.66" stroke-dasharray="6 6" transform="rotate(12.12, 400, 400)" opacity="0.73"></path><path d="M377.54 -168.77C386.88 -169.31 396.18 -169.81 405.43 -170.2 414.69 -170.69 423.91 -170.94 433.1 -170.9 442.31 -170.74 451.51 -170.15 460.71 -169.11 469.97 -167.8 479.25 -166 488.6 -163.7 498.03 -161.14 507.56 -158.16 517.22 -154.81 527.01 -151.35 536.97 -147.66 547.12 -143.8 557.46 -140.07 568.03 -136.3 578.85 -132.56 589.87 -129.11 601.16 -125.74 612.71 -122.48 624.45 -119.52 636.42 -116.61 648.6 -113.72 660.87 -111.01 673.26 -108.18 685.69 -105.17 698.03 -102.12 710.26 -98.74 722.26 -94.97 733.91 -90.95 745.12 -86.45 755.75 -81.44 765.73 -76.09 774.9 -70.23 783.12 -63.88 790.44 -57.23 796.65 -50.18 801.66 -42.79 805.68 -35.25 808.49 -27.51 810.11 -19.63 810.93 -11.82 810.77 -4 809.78 3.77 808.51 11.31 806.86 18.71 805.1 25.96 803.84 32.89 803.05 39.64 803.06 46.23 804.39 52.5 807.03 58.65 811.22 64.71 817.25 70.52 825.04 76.33 834.59 82.16 845.88 87.86 858.63 93.68 872.58 99.65 887.37 105.61 902.55 111.79 917.6 118.21 932.05 124.71 945.33 131.5 956.91 138.57 966.46 145.78 973.48 153.29 977.7 161.08 979.22 169.03 977.84 177.26 973.71 185.74 967.49 194.38 959.35 203.24 949.89 212.3 940.14 221.48 930.51 230.84 921.77 240.33 914.93 249.92 910.31 259.61 908.41 269.38 909.78 279.22 914.28 289.11 921.82 299.02 932.22 308.98 944.77 318.93 958.76 328.86 973.47 338.82 987.82 348.74 1000.86 358.59 1011.87 368.45 1019.9 378.24 1024.33 387.94 1025.06 397.63 1021.8 407.11 1014.84 416.36 1004.88 425.6 992.41 434.62 978.29 443.4 963.58 452.18 949.06 460.74 935.6 469.08 924.13 477.42 915.1 485.57 908.92 493.53 905.99 501.53 906.12 509.38 909.07 517.11 914.71 524.93 922.22 532.69 930.94 540.43 940.49 548.34 949.79 556.3 958.15 564.38 965.27 572.72 970.28 581.26 972.8 590.06 972.85 599.23 970.03 608.73 964.43 618.62 956.38 628.93 946.01 639.68 933.72 650.87 920.04 662.46 905.39 674.47 890.29 686.86 875.25 699.51 860.69 712.4 847.02 725.42 834.6 738.4 823.62 751.26 814.24 763.84 806.64 775.96 800.69 787.46 796.31 798.15 793.53 807.94 791.97 816.6 791.38 823.98 790.98 834.17 770.93 828.82 759.4 831.97 750.64 836.57 741.09 843.07 730.87 851.51 720.13 861.88 708.92 873.86 697.38 887.14 685.56 901.33 673.57 915.87 661.5 930.19 649.37 943.75 637.29 955.91 625.31 966.08 613.4 973.97 601.66 979.09 590.12 981.23 578.71 980.61 567.51 977.17 556.54 971.22 545.71 963.6 535.09 954.64 524.66 945.11 514.36 936.13 504.22 928.18 494.22 922.01 484.32 918.52 474.54 917.87 464.85 920.31 455.21 926.04 445.65 934.6 436.14 945.49 426.65 958.16 417.2 971.6 407.78 984.83 398.37 997.01 388.96 1007.07 379.57 1014.16 370.18 1017.92 360.91 1017.8 351.76 1013.86 342.6 1006.65 333.56 996.49 324.65 984.18 315.73 970.75 306.95 957 298.29 943.86 289.64 932.31 281.13 922.91 272.76 916.16 264.38 912.53 256.15 911.89 248.07 914.03 239.97 918.86 232.01 925.57 224.18 933.47 216.32 942.15 208.58 950.53 200.96 957.89 193.27 963.91 185.68 967.74 178.16 969.02 170.55 967.78 162.99 963.71 155.47 956.94 147.82 947.86 140.19 936.67 132.57 923.87 124.8 910.02 117.02 895.58 109.24 881.11 101.31 867.12 93.39 854.02 85.48 842.15 77.47 831.85 69.5 823.22 61.6 816.3 53.65 811.24 45.83 807.77 38.16 805.69 30.52 805.01 23.08 805.22 15.87 805.98 8.77 807.32 1.92 808.61 -4.64 809.56 -11.1 810.26 -17.28 810.13 -23.21 809.03 -29.07 807.1 -34.71 803.97 -40.18 799.6 -45.67 794.21 -51.05 787.61 -56.36 779.89 -61.78 771.25 -67.19 761.67 -72.6 751.3 -78.17 740.29 -83.74 728.74 -89.27 716.79 -94.9 704.54 -100.42 692.11 -105.77 679.64 -111.06 667.12 -116.05 654.71 -120.66 642.48 -125.03 630.39 -128.92 618.55 -132.29 607 -135.34 595.67 -137.86 584.63 -139.87 573.88 -141.67 563.36 -143.1 553.09 -144.25 543.06 -145.44 533.23 -146.57 523.57 -147.73 514.06 -149.24 504.69 -150.95 495.41 -152.92 486.2 -155.36 477.07 -158.06 467.96 -160.95 458.84 -164.17 449.77 -167.38 440.65 -170.45 431.47 -173.45 422.31 -176 413.08 -177.97 403.75 -179.48 394.43 -180.21 385.01 -180.1 375.5 -179.41 365.99 -177.95 356.51 -175.82 347.05 -173.38 337.61 -170.55 328.2 -167.48 318.86 -164.54 309.54 -161.64 300.3 -158.9 291.15 -156.61 282.05 -154.59 273.06 -152.85 264.21 -151.58 255.42 -150.49 246.8 -149.5 238.36 -148.74 229.98 -147.86 221.81 -146.76 213.86 -145.55 205.98 -143.92 198.33 -141.81 190.91 -139.38 183.56 -136.4 176.43 -132.85 169.53 -129 162.66 -124.65 155.98 -119.88 149.49 -114.95 142.96 -109.73 136.57 -104.3 130.28 -98.9 123.87 -93.42 117.51 -87.9 111.15 -82.53 104.59 -77.17 97.97 -71.83 91.26 -66.66 84.27 -61.46 77.14 -56.22 69.87 -51.07 62.29 -45.79 54.55 -40.36 46.66 -34.91 38.52 -29.22 30.27 -23.3 21.96 -17.26 13.51 -10.95 5.1 -4.37 -3.21 2.32 -11.48 9.28 -19.52 16.47 -27.28 23.73 -34.81 31.19 -41.95 38.79 -48.63 46.39 -54.97 54.09 -60.81 61.86 -66.14 69.54 -71.14 77.26 -75.65 84.99 -79.72 92.58 -83.6 100.18 -87.14 107.77 -90.42 115.2 -93.72 122.64 -96.9 130.1 -100.03 137.41 -103.38 144.77 -106.79 152.16 -110.3 159.47 -114.13 166.84 -118.08 174.31 -122.13 181.72 -126.45 189.24 -130.78 196.89 -135.07 204.52 -139.44 212.29 -143.63 220.2 -147.55 228.12 -151.33 236.19 -154.73 244.41 -157.67 252.65 -160.34 261.03 -162.52 269.56 -164.2 278.1 -165.62 286.78 -166.6 295.58 -167.17 304.39 -167.65 313.32 -167.85 322.35 -167.85 331.38 -167.95 340.5 -167.97 349.71 -167.97 358.91 -168.21 368.19 -168.48 377.53 -168.77" stroke-dasharray="3 6" transform="rotate(16.16, 400, 400)" opacity="0.92"></path><path d="M383.79 -141.89C392.84 -142.54 401.95 -143.19 411.12 -143.79 420.29 -144.5 429.53 -145 438.85 -145.22 448.19 -145.32 457.63 -144.99 467.16 -144.2 476.75 -143.12 486.45 -141.51 496.29 -139.38 506.21 -136.95 516.28 -134.05 526.5 -130.73 536.82 -127.25 547.31 -123.49 557.97 -119.53 568.72 -115.64 579.63 -111.7 590.69 -107.77 601.8 -104.1 613.02 -100.54 624.32 -97.1 635.59 -94.01 646.85 -91.03 658.04 -88.15 669.08 -85.53 679.92 -82.9 690.48 -80.2 700.71 -77.57 710.5 -74.72 719.76 -71.59 728.48 -68.31 736.52 -64.62 743.76 -60.48 750.32 -56.03 755.98 -51.08 760.68 -45.62 764.65 -39.81 767.66 -33.53 769.73 -26.81 771.19 -19.82 771.86 -12.49 771.85 -4.88 771.6 2.82 770.98 10.7 770.18 18.66 769.72 26.55 769.52 34.42 769.82 42.23 771.1 49.82 773.3 57.29 776.65 64.61 781.46 71.63 787.66 78.5 795.33 85.21 804.55 91.63 815.16 97.93 827.01 104.14 839.95 110.11 853.64 116.04 867.76 121.97 881.94 127.75 895.76 133.6 908.75 139.54 920.57 145.41 930.75 151.44 938.92 157.64 944.97 163.84 948.54 170.26 949.55 176.89 948.27 183.58 944.62 190.5 938.87 197.66 931.74 204.89 923.4 212.36 914.43 220.04 905.77 227.8 897.71 235.77 890.9 243.93 886.14 252.15 883.61 260.54 883.66 269.08 886.64 277.67 892.35 286.38 900.62 295.19 911.23 304.03 923.52 312.95 936.83 321.94 950.56 330.94 963.77 339.98 975.66 349.05 985.64 358.12 992.91 367.21 996.96 376.29 997.72 385.38 994.91 394.36 988.78 403.23 979.92 412.1 968.69 420.86 955.82 429.52 942.19 438.2 928.46 446.79 915.39 455.31 903.8 463.88 894.13 472.4 886.8 480.9 882.25 489.48 880.41 498.08 881.17 506.74 884.55 515.52 889.93 524.41 896.82 533.44 904.95 542.65 913.44 552.05 921.65 561.67 929.35 571.53 935.67 581.64 940.19 592.04 942.86 602.69 943.15 613.63 940.98 624.85 936.56 636.27 929.77 647.93 920.87 659.79 910.25 671.73 898.12 683.74 884.91 695.74 871.06 707.6 856.93 719.26 842.9 730.59 829.36 741.48 816.59 751.81 804.83 761.43 794.31 770.3 785.11 778.25 777.29 785.14 758.2 799.8 753.99 796.76 750.74 798.51 747.75 801.57 743.87 806.12 739.13 812.28 733.74 820.2 727.51 829.68 720.51 840.61 712.92 852.8 704.66 865.87 695.82 879.45 686.54 893.13 676.82 906.39 666.73 918.72 656.37 929.73 645.77 938.91 635.01 945.87 624.13 950.53 613.17 952.57 602.22 951.96 591.22 949.1 580.29 944.02 569.44 937.12 558.61 929.24 547.91 920.69 537.34 912.14 526.82 904.58 516.44 898.36 506.21 894.04 496.03 892.33 485.99 893.26 476.09 896.95 466.23 903.48 456.49 912.37 446.87 923.15 437.28 935.31 427.79 947.95 418.4 960.23 409.02 971.46 399.73 980.71 390.52 987.27 381.31 990.86 372.28 990.98 363.42 987.66 354.56 981.37 345.86 972.34 337.33 961.21 328.77 948.86 320.37 935.94 312.13 923.26 303.85 911.7 295.72 901.76 287.72 893.96 279.69 888.79 271.78 886.26 263.99 886.31 256.15 888.97 248.4 893.65 240.75 899.84 233.02 907.27 225.37 915.02 217.78 922.45 210.08 929.28 202.43 934.66 194.81 938.17 187.07 939.73 179.34 938.88 171.61 935.56 163.76 930.01 155.9 922.2 148.04 912.43 140.05 901.14 132.07 888.61 124.1 875.3 116.03 861.69 108 848.14 100.03 835.05 92.01 822.79 84.09 811.6 76.29 801.67 68.51 793.21 60.9 786.2 53.48 780.6 46.14 776.5 39.04 773.61 32.18 771.73 25.44 770.91 18.95 770.68 12.73 770.78 3.69 771.47 -13.19 771.11 -21.17 769.05 -26.47 766.8 -31.67 763.58 -36.8 759.39 -42.03 754.42 -47.21 748.49 -52.36 741.64 -57.62 734.07 -62.82 725.71 -67.93 716.67 -73.09 707.07 -78.09 696.96 -82.88 686.43 -87.6 675.58 -92.02 664.47 -96.09 653.2 -99.97 641.8 -103.45 630.36 -106.49 618.95 -109.31 607.53 -111.72 596.23 -113.75 585.06 -115.66 573.98 -117.31 563.06 -118.75 552.33 -120.28 541.7 -121.76 531.26 -123.26 521 -125.05 510.84 -126.97 500.83 -129.03 490.98 -131.45 481.21 -134 471.56 -136.63 462.02 -139.47 452.53 -142.23 443.12 -144.81 433.79 -147.31 424.49 -149.41 415.24 -151 406.04 -152.24 396.84 -152.83 387.68 -152.73 378.56 -152.19 369.44 -151.02 360.46 -149.28 351.63 -147.3 342.79 -144.95 334.09 -142.36 325.55 -139.84 317 -137.28 308.62 -134.77 300.4 -132.57 292.19 -130.53 284.16 -128.65 276.3 -127.13 268.46 -125.73 260.8 -124.4 253.34 -123.27 245.88 -122.05 238.61 -120.68 231.53 -119.28 224.44 -117.57 217.52 -115.5 210.77 -113.22 203.97 -110.51 197.32 -107.35 190.79 -103.95 184.16 -100.13 177.62 -95.93 171.13 -91.58 164.49 -86.94 157.87 -82.06 151.22 -77.17 144.36 -72.13 137.44 -66.99 130.42 -61.96 123.16 -56.87 115.77 -51.74 108.25 -46.74 100.47 -41.69 92.55 -36.59 84.51 -31.57 76.26 -26.44 67.93 -21.17 59.54 -15.9 51.05 -10.43 42.59 -4.76 34.21 0.99 25.88 7.01 17.73 13.27 9.84 19.66 2.15 26.3 -5.17 33.18 -12.1 40.17 -18.71 47.38 -24.85 54.77 -30.49 62.21 -35.79 69.8 -40.61 77.51 -44.96 85.18 -49.05 92.94 -52.76 100.74 -56.13 108.46 -59.42 116.2 -62.51 123.95 -65.47 131.56 -68.57 139.18 -71.67 146.79 -74.83 154.25 -78.29 161.72 -81.88 169.2 -85.61 176.54 -89.69 183.91 -93.89 191.32 -98.18 198.61 -102.7 205.96 -107.2 213.39 -111.61 220.73 -116.04 228.16 -120.22 235.69 -124.08 243.17 -127.75 250.76 -130.97 258.48 -133.7 266.16 -136.12 273.98 -138.01 281.93 -139.39 289.86 -140.49 297.94 -141.16 306.15 -141.43 314.35 -141.62 322.7 -141.56 331.19 -141.33 339.66 -141.25 348.28 -141.14 357.05 -141.04 365.81 -141.25 374.72 -141.53 383.78 -141.89" stroke-dasharray="7 7" transform="rotate(20.200000000000003, 400, 400)" opacity="0.74"></path><path d="M397.71 -115C406.64 -115.75 415.65 -116.54 424.76 -117.3 433.88 -118.21 443.1 -118.93 452.42 -119.39 461.77 -119.75 471.23 -119.69 480.8 -119.17 490.39 -118.35 500.11 -116.99 509.93 -115.09 519.79 -112.85 529.75 -110.11 539.8 -106.91 549.87 -103.49 560.01 -99.74 570.2 -95.74 580.37 -91.74 590.55 -87.64 600.7 -83.52 610.76 -79.61 620.72 -75.8 630.54 -72.11 640.17 -68.77 649.56 -65.59 658.64 -62.55 667.42 -59.84 675.78 -57.21 683.66 -54.62 691.12 -52.2 698 -49.7 704.22 -47.04 712.44 -42.85 724.43 -32.47 728.22 -26.02 730.1 -21.22 731.38 -15.94 732.13 -10.18 732.75 -4.09 733.08 2.43 733.25 9.35 733.71 16.51 734.33 23.96 735.3 31.66 737.02 39.44 739.42 47.36 742.66 55.36 747.05 63.3 752.52 71.23 759.15 79.1 767.08 86.8 776.19 94.39 786.42 101.86 797.71 109.07 809.85 116.16 822.62 123.11 835.77 129.8 849.01 136.38 861.99 142.87 874.4 149.12 885.88 155.33 896.06 161.51 904.76 167.52 911.62 173.55 916.4 179.63 919.2 185.6 919.78 191.66 918.18 197.84 914.81 203.96 909.67 210.22 903.07 216.65 895.73 223.05 887.81 229.64 879.83 236.41 872.6 243.18 866.33 250.15 861.51 257.3 858.77 264.47 858.18 271.82 859.93 279.35 864.27 286.89 870.92 294.61 879.67 302.48 890.29 310.36 902.18 318.4 914.74 326.57 927.46 334.75 939.55 343.06 950.33 351.49 959.34 359.92 965.9 368.47 969.58 377.14 970.36 385.8 967.97 394.49 962.61 403.19 954.77 411.89 944.74 420.63 933.08 429.39 920.57 438.18 907.72 447.02 895.2 455.92 883.72 464.87 873.69 473.9 865.52 483.03 859.65 492.23 856.11 501.56 854.91 511.04 856.13 520.61 859.36 530.35 864.25 540.26 870.65 550.29 877.82 560.5 885.27 570.89 892.79 581.39 899.61 592.06 905.29 602.87 909.76 613.73 912.43 624.69 913.09 635.7 911.87 646.65 908.5 657.56 903.06 668.34 895.83 678.9 886.84 689.2 876.39 699.13 864.83 708.65 852.39 717.64 839.42 726 826.25 733.75 813.17 740.72 800.46 746.83 788.36 752.2 777.06 756.63 766.71 760.1 757.46 762.85 749.31 764.69 742.27 765.68 723.88 764.54 716.19 769.61 714.31 776.27 712.79 782.6 710.74 790.29 708.11 799.3 705.12 809.6 701.47 820.93 697.15 833.07 692.39 845.76 686.98 858.62 680.94 871.25 674.48 883.33 667.46 894.4 659.93 904.07 652.06 912.12 643.77 918.17 635.12 922 626.23 923.71 617.07 923.14 607.7 920.37 598.18 915.92 588.51 909.87 578.76 902.64 568.93 895.04 559.05 887.33 549.18 880.07 539.28 874.1 529.4 869.64 519.58 867.11 509.76 867.03 500.01 869.34 490.34 874.06 480.68 881.19 471.11 890.25 461.63 900.79 452.17 912.37 442.79 924.19 433.51 935.54 424.24 945.85 415.05 954.33 405.95 960.39 396.85 963.8 387.93 964.12 379.18 961.37 370.42 955.94 361.83 947.98 353.39 938 344.92 926.75 336.6 914.75 328.41 902.67 320.18 891.3 312.06 881.1 304.06 872.55 296 866.16 288.04 862.01 280.16 860.16 272.2 860.74 264.31 863.34 256.47 867.61 248.55 873.42 240.66 880 232.81 886.84 224.85 893.71 216.91 899.81 208.98 904.71 200.95 908.31 192.92 910.02 184.9 909.69 176.79 907.43 168.69 903.02 160.61 896.59 152.47 888.45 144.36 878.69 136.31 867.66 128.25 855.72 120.26 843.17 112.39 830.37 104.56 817.67 96.86 805.35 89.34 793.67 81.91 782.89 74.68 773.12 67.67 764.48 60.79 757.1 54.15 750.9 47.76 745.81 41.5 741.93 35.49 738.96 29.71 736.76 21.3 734.9 5.51 733.08 -1.98 732.1 -9.43 730.58 -24.08 724.04 -31.31 718.65 -36.19 714.27 -40.99 709.12 -45.67 703.24 -50.38 696.83 -54.92 689.75 -59.25 682.08 -63.52 673.96 -67.52 665.36 -71.22 656.34 -74.78 647.01 -78.01 637.39 -80.89 627.53 -83.63 617.49 -86.06 607.32 -88.19 597.07 -90.27 586.73 -92.14 576.39 -93.85 566.08 -95.65 555.75 -97.4 545.49 -99.13 535.32 -101.08 525.17 -103.07 515.14 -105.13 505.22 -107.43 495.34 -109.76 485.58 -112.08 475.95 -114.53 466.36 -116.85 456.88 -118.97 447.53 -121.02 438.2 -122.71 428.98 -123.97 419.88 -124.96 410.78 -125.44 401.8 -125.35 392.92 -124.95 384.04 -124.04 375.36 -122.65 366.89 -121.08 358.41 -119.18 350.12 -117.04 342.03 -114.93 333.92 -112.73 326 -110.49 318.26 -108.47 310.5 -106.49 302.92 -104.59 295.51 -102.94 288.07 -101.33 280.79 -99.74 273.66 -98.32 266.48 -96.82 259.43 -95.19 252.5 -93.57 245.5 -91.71 238.59 -89.57 231.75 -87.31 224.8 -84.71 217.9 -81.76 211.01 -78.65 203.98 -75.2 196.93 -71.41 189.84 -67.51 182.57 -63.35 175.23 -58.95 167.81 -54.53 160.18 -49.95 152.45 -45.24 144.61 -40.59 136.58 -35.86 128.44 -31.06 120.23 -26.36 111.85 -21.59 103.43 -16.76 94.99 -11.99 86.49 -7.13 78.04 -2.14 69.68 2.83 61.39 7.98 53.27 13.31 45.39 18.71 37.71 24.34 30.35 30.2 23.36 36.18 16.67 42.41 10.41 48.89 4.61 55.49 -0.85 62.33 -5.85 69.38 -10.39 76.54 -14.65 83.88 -18.51 91.39 -22 98.93 -25.35 106.61 -28.45 114.39 -31.36 122.14 -34.33 129.97 -37.23 137.84 -40.13 145.64 -43.27 153.46 -46.52 161.3 -49.9 169.04 -53.62 176.77 -57.51 184.51 -61.57 192.13 -65.94 199.75 -70.41 207.38 -74.94 214.89 -79.63 222.43 -84.23 229.99 -88.68 237.46 -93.07 244.97 -97.15 252.53 -100.85 260.02 -104.29 267.57 -107.24 275.22 -109.68 282.8 -111.76 290.48 -113.32 298.27 -114.36 306.02 -115.13 313.89 -115.48 321.9 -115.47 329.87 -115.39 337.98 -115.11 346.25 -114.7 354.49 -114.47 362.9 -114.25 371.47 -114.09 380.04 -114.28 388.78 -114.58 397.7 -115" stroke-dasharray="0 3" transform="rotate(24.24, 400, 400)" opacity="0.23"></path><path d="M412.72 -88.12C421.5 -88.95 430.35 -89.84 439.25 -90.75 448.16 -91.82 457.13 -92.73 466.16 -93.42 475.19 -94.01 484.28 -94.21 493.41 -93.97 502.54 -93.44 511.7 -92.36 520.88 -90.75 530.04 -88.77 539.18 -86.26 548.3 -83.26 557.36 -80 566.35 -76.35 575.24 -72.39 584.02 -68.36 592.65 -64.17 601.07 -59.9 609.33 -55.78 617.33 -51.71 625.01 -47.74 632.45 -44.09 639.51 -40.59 646.15 -37.28 655.39 -32.91 670.8 -25.18 676.85 -21.54 685.4 -13.79 693.3 1.33 695.05 8.1 696.46 13.08 698.02 18.52 699.85 24.41 702.29 30.6 705.25 37.19 708.85 44.14 713.36 51.3 718.7 58.74 724.95 66.4 732.24 74.16 740.47 82.05 749.65 90.03 759.74 97.98 770.6 105.94 782.11 113.88 794.1 121.7 806.36 129.44 818.65 137.1 830.74 144.57 842.33 151.94 853.15 159.2 863 166.25 871.56 173.2 878.6 180.07 884.09 186.74 887.75 193.36 889.5 199.93 889.56 206.34 887.79 212.74 884.31 219.15 879.63 225.44 873.75 231.78 867.01 238.18 860.08 244.49 853.09 250.91 846.47 257.43 840.91 263.89 836.52 270.49 833.66 277.23 832.81 283.93 833.94 290.79 837.15 297.81 842.56 304.81 849.89 311.98 858.9 319.32 869.36 326.65 880.71 334.15 892.46 341.83 904.17 349.5 915.16 357.35 924.88 365.38 932.98 373.41 938.87 381.62 942.21 390.02 943 398.42 940.98 406.91 936.32 415.5 929.45 424.09 920.54 432.79 910.07 441.6 898.69 450.42 886.8 459.35 874.95 468.4 863.78 477.48 853.64 486.68 844.93 496.01 838.07 505.37 833.14 514.85 830.23 524.46 829.5 534.09 830.66 543.84 833.5 553.68 837.98 563.52 843.5 573.43 849.69 583.38 856.42 593.28 863 603.17 869.03 613 874.45 622.7 878.65 632.26 881.39 641.62 882.72 650.74 882.26 659.55 879.97 667.99 876.05 676.06 870.37 683.65 863.08 690.68 854.47 697.23 844.63 703.13 833.8 708.33 822.29 712.99 810.29 716.91 798.07 720.09 785.87 722.77 773.9 724.75 762.34 726.09 751.38 727.12 741.13 727.66 731.66 727.84 723.1 728.05 715.42 728.17 708.61 728.34 700.21 729.52 688.14 735.86 683.91 741.89 681.73 747.43 679.72 754.07 677.78 761.82 676.05 770.72 674.19 780.6 672.11 791.33 670.01 802.76 667.56 814.62 664.7 826.64 661.65 838.57 658.13 850.05 654.12 860.76 649.85 870.45 645.07 878.78 639.81 885.48 634.27 890.49 628.28 893.55 621.86 894.59 615.2 893.87 608.16 891.28 600.78 887.02 593.22 881.65 585.37 875.26 577.29 868.27 569.08 861.41 560.67 854.86 552.12 849.1 543.48 844.8 534.74 842.07 525.91 841.2 517.04 842.58 508.12 846.06 499.17 851.59 490.2 859.12 481.22 868.19 472.24 878.39 463.26 889.33 454.29 900.32 445.34 910.75 436.39 920.19 427.47 927.93 418.56 933.5 409.66 936.74 400.88 937.24 392.22 935 383.55 930.36 374.99 923.4 366.54 914.54 358.07 904.39 349.7 893.36 341.41 882.02 333.09 871.03 324.85 860.81 316.67 851.81 308.44 844.51 300.27 839.04 292.15 835.55 283.96 834.23 275.82 834.81 267.7 837.1 259.52 841.06 251.36 846.09 243.22 851.79 235.02 858.03 226.83 864.08 218.67 869.54 210.45 874.32 202.27 877.81 194.11 879.76 185.94 880.24 177.81 878.87 169.75 875.66 161.7 870.8 153.75 864.22 145.9 856.13 138.11 846.8 130.45 836.39 122.96 825.18 115.57 813.48 108.36 801.53 101.37 789.59 94.5 777.92 87.86 766.72 81.45 756.15 75.18 746.38 69.16 737.5 63.37 729.54 57.7 722.6 52.25 716.61 47.02 711.49 39.36 705.6 24.86 697.93 17.92 695.39 10.99 693.44 -2.64 688.93 -9.36 685.8 -16.12 681.87 -29.11 670.81 -35.21 663.6 -39.18 658.23 -42.91 652.33 -46.39 645.93 -49.79 639.21 -52.91 632.04 -55.75 624.49 -58.51 616.68 -61.01 608.56 -63.28 600.17 -65.52 591.61 -67.58 582.85 -69.5 573.95 -71.48 564.94 -73.38 555.83 -75.22 546.67 -77.21 537.45 -79.18 528.21 -81.13 518.98 -83.23 509.73 -85.29 500.52 -87.27 491.36 -89.33 482.19 -91.24 473.09 -92.93 464.07 -94.57 455.05 -95.9 446.12 -96.87 437.27 -97.67 428.43 -98.04 419.67 -97.98 411 -97.7 402.33 -97.01 393.85 -95.94 385.56 -94.74 377.25 -93.25 369.11 -91.53 361.14 -89.82 353.15 -87.98 345.32 -86.04 337.62 -84.25 329.9 -82.41 322.3 -80.57 314.82 -78.89 307.28 -77.19 299.85 -75.46 292.5 -73.84 285.07 -72.12 277.7 -70.27 270.38 -68.45 262.96 -66.42 255.55 -64.17 248.15 -61.86 240.63 -59.26 233.08 -56.39 225.5 -53.42 217.77 -50.17 209.99 -46.65 202.15 -43.05 194.16 -39.22 186.1 -35.19 177.98 -31.15 169.72 -26.95 161.41 -22.62 153.06 -18.34 144.63 -13.98 136.19 -9.53 127.78 -5.17 119.36 -0.74 111.01 3.75 102.79 8.18 94.66 12.7 86.71 17.32 79 21.93 71.49 26.67 64.28 31.58 57.42 36.53 50.83 41.68 44.64 47.03 38.88 52.49 33.42 58.19 28.39 64.12 23.8 70.18 19.47 76.49 15.54 83.03 11.98 89.7 8.57 96.59 5.44 103.69 2.54 110.88 -0.36 118.24 -3.16 125.76 -5.91 133.33 -8.85 141.03 -11.84 148.82 -14.93 156.62 -18.34 164.48 -21.91 172.41 -25.66 180.29 -29.75 188.21 -34.01 196.15 -38.41 204.03 -43.07 211.92 -47.77 219.83 -52.46 227.65 -57.22 235.49 -61.83 243.34 -66.2 251.1 -70.43 258.89 -74.29 266.71 -77.72 274.45 -80.83 282.23 -83.43 290.06 -85.49 297.83 -87.19 305.66 -88.38 313.56 -89.06 321.42 -89.5 329.36 -89.55 337.4 -89.27 345.41 -88.97 353.53 -88.5 361.76 -87.95 369.98 -87.61 378.33 -87.32 386.82 -87.13 395.3 -87.3 403.92 -87.64 412.71 -88.12" stroke-dasharray="5 0" transform="rotate(28.28, 400, 400)" opacity="0.69"></path><path d="M421.7 -61.23C430.19 -62.13 438.67 -63.11 447.13 -64.14 455.58 -65.33 464.01 -66.41 472.41 -67.29 480.79 -68.1 489.13 -68.55 497.4 -68.59 505.65 -68.35 513.82 -67.59 521.88 -66.29 529.89 -64.63 537.77 -62.43 545.49 -59.71 553.13 -56.69 560.57 -53.23 567.79 -49.42 574.88 -45.46 581.71 -41.27 588.23 -36.93 594.6 -32.67 600.62 -28.39 606.28 -24.17 614.29 -18.27 627.97 -7.77 633.63 -3.22 642.68 4.26 653.36 14.94 656.54 18.98 660.21 23.51 669.45 34.73 675.54 41.56 680.49 46.56 686.09 51.98 692.38 57.8 699.48 63.91 707.33 70.38 715.91 77.18 725.24 84.19 735.2 91.46 745.71 98.95 756.67 106.56 767.93 114.32 779.33 122.18 790.68 130.06 801.79 138 812.44 145.94 822.46 153.83 831.61 161.68 839.66 169.5 846.56 177.19 852.06 184.83 856.02 192.39 858.54 199.8 859.45 207.15 858.75 214.43 856.76 221.56 853.39 228.64 848.83 235.68 843.58 242.58 837.67 249.46 831.4 256.34 825.39 263.11 819.7 269.9 814.69 276.72 810.91 283.46 808.38 290.26 807.37 297.14 808.21 303.95 810.82 310.85 815.2 317.87 821.42 324.84 829.18 331.93 838.23 339.16 848.37 346.36 859.09 353.71 869.97 361.21 880.67 368.7 890.6 376.35 899.32 384.17 906.56 391.98 911.83 399.98 914.84 408.15 915.62 416.33 913.95 424.6 909.93 432.95 903.95 441.32 896.11 449.77 886.79 458.31 876.53 466.86 865.63 475.49 854.57 484.2 843.88 492.91 833.87 501.69 824.89 510.52 817.35 519.34 811.36 528.19 807.04 537.06 804.61 545.88 803.89 554.69 804.76 563.45 807.26 572.12 810.95 580.71 815.55 589.15 821 597.45 826.73 605.56 832.4 613.43 837.97 621.08 842.87 628.41 846.84 635.39 850.76 645.19 849.53 661.98 844.07 668.79 838.61 672.78 831.79 676.22 823.76 679.1 814.77 681.68 804.9 683.76 794.38 685.39 783.41 686.86 772.17 688.01 760.84 688.92 749.6 689.93 738.59 690.9 727.95 691.95 717.79 693.43 708.2 695.21 699.24 697.44 690.96 700.41 683.37 704.04 676.45 708.42 670.25 713.75 664.66 719.95 659.62 727.05 655.2 735.1 651.19 743.98 647.53 753.63 644.3 763.95 641.26 774.77 638.32 785.89 635.62 797.13 632.89 808.25 630.04 818.98 627.27 829.12 624.29 838.39 621.05 846.52 615.96 856.14 603.92 865.06 596.9 864.1 591.95 861.56 586.64 857.63 580.99 852.56 575.19 846.92 569.06 840.76 562.64 834.48 556.09 828.71 549.27 823.56 542.2 819.4 535.05 816.76 527.68 815.66 520.12 816.29 512.5 818.92 504.71 823.34 496.79 829.47 488.83 837.22 480.75 846.17 472.56 855.93 464.36 866.18 456.07 876.33 447.7 885.87 439.33 894.46 430.89 901.51 422.38 906.62 413.87 909.68 405.4 910.32 396.97 908.54 388.54 904.63 380.14 898.62 371.79 890.82 363.43 881.77 355.11 871.74 346.82 861.22 338.52 850.79 330.24 840.78 321.99 831.6 313.73 823.7 305.48 817.24 297.26 812.4 289.02 809.42 280.79 808.16 272.59 808.52 264.37 810.54 256.18 813.79 248.01 817.99 239.85 823.05 231.72 828.39 223.63 833.66 215.57 838.78 207.57 843.19 199.64 846.6 191.76 849.04 183.97 850.07 176.31 849.59 168.71 847.73 161.26 844.28 153.96 839.31 146.77 833.03 139.76 825.44 132.95 816.74 126.27 807.17 119.79 796.87 113.54 786.06 107.43 774.99 101.54 763.83 95.88 752.77 90.34 742 85.02 731.65 79.91 721.84 74.88 712.68 70.04 704.23 65.37 696.5 60.72 689.58 56.22 683.4 51.83 677.89 45.26 671.06 32.39 660.76 26.04 656.76 19.6 653.4 6.91 646.68 0.74 642.9 -5.36 638.73 -16.75 628.31 -21.94 621.95 -25.26 617.35 -28.36 612.34 -31.23 606.93 -34.04 601.32 -36.63 595.32 -39 588.99 -41.36 582.48 -43.54 575.67 -45.57 568.59 -47.63 561.38 -49.58 553.94 -51.42 546.3 -53.35 538.58 -55.19 530.7 -56.96 522.7 -58.81 514.65 -60.56 506.5 -62.2 498.28 -63.88 490.04 -65.39 481.74 -66.7 473.42 -67.98 465.08 -69 456.73 -69.73 448.37 -70.35 440.01 -70.65 431.64 -70.6 423.28 -70.44 414.93 -69.94 406.67 -69.14 398.51 -68.27 390.35 -67.15 382.28 -65.81 374.29 -64.48 366.3 -63 358.37 -61.39 350.52 -59.85 342.64 -58.22 334.81 -56.52 327.03 -54.91 319.2 -53.22 311.41 -51.44 303.62 -49.72 295.78 -47.88 287.94 -45.9 280.09 -43.92 272.17 -41.76 264.22 -39.4 256.25 -36.99 248.19 -34.35 240.1 -31.48 231.97 -28.54 223.77 -25.38 215.53 -21.99 207.26 -18.56 198.95 -14.93 190.62 -11.13 182.29 -7.34 173.96 -3.41 165.67 0.63 157.43 4.62 149.25 8.7 141.18 12.84 133.26 16.9 125.46 21.03 117.86 25.21 110.5 29.3 103.33 33.47 96.46 37.73 89.91 41.93 83.62 46.25 77.68 50.69 72.14 55.15 66.86 59.77 61.98 64.56 57.49 69.42 53.24 74.49 49.35 79.78 45.81 85.17 42.41 90.8 39.28 96.66 36.38 102.65 33.5 108.88 30.74 115.33 28.07 121.9 25.25 128.68 22.4 135.66 19.5 142.74 16.32 149.98 12.99 157.38 9.51 164.85 5.68 172.44 1.68 180.13 -2.49 187.86 -6.98 195.67 -11.59 203.55 -16.27 211.43 -21.13 219.35 -25.96 227.32 -30.69 235.26 -35.39 243.23 -39.86 251.23 -44.03 259.19 -47.97 267.16 -51.49 275.16 -54.53 283.12 -57.23 291.1 -59.41 299.1 -61.04 307.07 -62.34 315.07 -63.13 323.1 -63.46 331.1 -63.58 339.15 -63.35 347.25 -62.85 355.32 -62.36 363.46 -61.75 371.66 -61.1 379.85 -60.68 388.11 -60.35 396.45 -60.15 404.78 -60.33 413.19 -60.7 421.69 -61.23" stroke-dasharray="8 0" transform="rotate(32.32, 400, 400)" opacity="0.11"></path><path d="M420.39 -34.35C428.39 -35.29 436.29 -36.35 444.09 -37.46 451.88 -38.76 459.55 -39.97 467.09 -41.01 474.62 -42.01 482.01 -42.69 489.25 -42.99 496.45 -43.04 503.48 -42.61 510.32 -41.66 517.1 -40.35 523.68 -38.51 530.03 -36.15 536.3 -33.44 542.32 -30.28 548.07 -26.71 553.74 -22.94 559.11 -18.87 564.2 -14.58 569.18 -10.28 573.86 -5.9 578.23 -1.48 584.51 4.83 595.57 16.46 600.46 21.62 605.21 26.1 614.31 33.92 618.97 37.45 624.16 40.76 636.26 47.85 643.54 51.91 649.08 54.83 655.13 58.07 661.7 61.65 668.89 65.45 676.64 69.64 684.95 74.2 693.81 79.03 703.16 84.24 712.93 89.82 723.05 95.65 733.43 101.82 743.93 108.29 754.44 114.97 764.81 121.91 774.88 129.07 784.52 136.37 793.55 143.84 801.78 151.44 809.17 159.1 815.49 166.85 820.62 174.66 824.61 182.47 827.26 190.3 828.54 198.12 828.65 205.91 827.45 213.67 825.03 221.4 821.76 229.05 817.58 236.67 812.67 244.25 807.55 251.74 802.19 259.19 796.89 266.61 792.16 273.95 788.01 281.27 784.71 288.57 782.7 295.8 781.94 303.04 782.59 310.28 784.88 317.47 788.69 324.69 793.97 331.96 800.73 339.17 808.68 346.45 817.59 353.79 827.27 361.1 837.28 368.5 847.26 375.98 856.96 383.44 865.87 391.01 873.63 398.67 880.07 406.33 884.76 414.1 887.46 421.98 888.24 429.86 886.87 437.76 883.44 445.68 878.28 453.59 871.44 461.52 863.21 469.44 854.05 477.36 844.19 485.27 833.99 493.16 823.93 501.02 814.24 508.84 805.25 516.6 797.33 524.32 790.59 531.94 785.19 539.45 781.36 546.89 779 554.17 778.08 561.27 778.68 568.26 780.5 575.03 783.34 581.54 787.21 587.89 791.64 593.95 796.38 599.67 801.42 605.21 806.24 610.38 810.61 615.16 818.41 627.28 814.75 640.86 807.77 644 801.68 645.99 794.55 647.8 786.5 649.48 777.74 651.33 768.34 653.21 758.46 655.2 748.27 657.59 737.88 660.26 727.44 663.3 717.07 666.95 706.86 671.11 696.94 675.88 687.36 681.39 678.19 687.58 669.49 694.47 661.28 702.11 653.58 710.42 646.38 719.35 639.72 728.85 633.53 738.78 627.76 749.03 622.47 759.47 617.54 769.91 612.89 780.16 608.62 790.08 604.53 799.43 600.58 808.01 596.87 815.72 593.2 822.32 589.5 827.65 584.1 833.07 572.72 834.71 566.56 831.18 562.36 827.51 557.92 822.94 553.21 817.71 548.45 812.34 543.42 806.9 538.12 801.68 532.76 797.24 527.13 793.61 521.25 791.06 515.31 790.01 509.12 790.39 502.7 792.32 496.23 795.97 489.54 801.12 482.65 807.64 475.72 815.44 468.61 824.13 461.32 833.37 454.01 842.91 446.54 852.23 438.91 860.9 431.28 868.68 423.5 875.07 415.59 879.73 407.67 882.61 399.73 883.37 391.75 882 383.79 878.76 375.8 873.62 367.79 866.84 359.8 858.85 351.79 849.85 343.78 840.23 335.77 830.49 327.77 820.88 319.76 811.77 311.77 803.57 303.79 796.43 295.82 790.57 287.87 786.24 279.95 783.37 272.06 781.96 264.19 782.1 256.37 783.51 248.6 785.98 240.88 789.51 233.23 793.64 225.67 798.09 218.16 802.82 210.76 807.32 203.48 811.33 196.29 814.87 189.23 817.48 182.32 819 175.52 819.52 168.89 818.74 162.44 816.63 156.11 813.35 149.98 808.77 144.06 802.97 138.25 796.17 132.65 788.37 127.26 779.75 121.98 770.48 116.9 760.7 112.02 750.56 107.21 740.25 102.57 729.88 98.11 719.61 93.67 709.57 89.37 699.84 85.19 690.53 80.99 681.7 76.88 673.39 72.86 665.64 68.75 658.49 64.71 651.89 60.71 645.83 56.6 640.35 52.53 635.34 48.5 630.72 42.32 624.66 30.07 614.21 24.09 609.43 18.16 604.91 7.01 595.39 1.89 590.15 -2.96 584.62 -11.56 571.99 -15.3 564.86 -17.69 559.91 -19.9 554.66 -21.94 549.11 -23.97 543.48 -25.85 537.57 -27.6 531.41 -29.37 525.17 -31.02 518.7 -32.54 512.01 -34.11 505.27 -35.54 498.34 -36.84 491.24 -38.16 484.1 -39.31 476.81 -40.29 469.38 -41.25 461.94 -42.01 454.36 -42.53 446.68 -43.02 438.99 -43.25 431.19 -43.23 423.3 -43.16 415.4 -42.83 407.5 -42.27 399.61 -41.69 391.71 -40.89 383.82 -39.9 375.93 -38.92 368.03 -37.78 360.13 -36.49 352.23 -35.24 344.31 -33.86 336.39 -32.35 328.45 -30.89 320.5 -29.3 312.52 -27.57 304.53 -25.86 296.52 -24 288.48 -21.97 280.42 -19.92 272.34 -17.68 264.24 -15.25 256.13 -12.77 248.01 -10.08 239.89 -7.19 231.77 -4.24 223.67 -1.09 215.6 2.24 207.56 5.6 199.58 9.14 191.68 12.82 183.87 16.49 176.15 20.27 168.57 24.16 161.16 27.98 153.9 31.87 146.84 35.82 140.01 39.68 133.38 43.58 127.03 47.53 120.97 51.38 115.15 55.27 109.64 59.22 104.48 65.06 97.25 77.14 84.8 83.45 79.5 89.95 74.64 103.92 66.01 111.45 62 116.65 59.23 122.07 56.45 127.71 53.63 133.46 50.57 139.44 47.4 145.62 44.08 151.92 40.45 158.42 36.64 165.1 32.66 171.89 28.37 178.84 23.92 185.93 19.34 193.12 14.54 200.43 9.69 207.84 4.84 215.32 -0.06 222.89 -4.86 230.53 -9.47 238.21 -13.96 245.95 -18.15 253.73 -21.96 261.53 -25.49 269.37 -28.56 277.24 -31.14 285.12 -33.36 293.01 -35.06 300.92 -36.25 308.84 -37.12 316.76 -37.53 324.7 -37.53 332.63 -37.35 340.58 -36.89 348.54 -36.21 356.49 -35.57 364.46 -34.86 372.43 -34.15 380.41 -33.69 388.4 -33.35 396.39 -33.17 404.38 -33.37 412.38 -33.76 420.38 -34.35" stroke-dasharray="9 8" transform="rotate(36.36, 400, 400)" opacity="0.45"></path><path d="M409.42 -7.46C416.77 -8.44 423.96 -9.55 431 -10.72 438.03 -12.09 444.9 -13.4 451.59 -14.58 458.27 -15.74 464.77 -16.62 471.07 -17.17 477.35 -17.5 483.43 -17.38 489.31 -16.79 497.95 -15.13 514.09 -8.75 521.57 -4.14 526.45 -0.66 531.12 3.15 535.57 7.26 540.01 11.46 544.25 15.83 548.32 20.3 554.39 26.88 566.05 39.49 571.81 45.29 577.83 50.47 590.66 59.53 597.7 63.48 602.82 65.84 608.23 68.15 613.96 70.44 620.12 72.61 626.65 74.84 633.58 77.18 640.94 79.52 648.72 82.05 656.89 84.79 665.44 87.64 674.34 90.78 683.52 94.21 692.94 97.82 702.53 101.76 712.19 106.04 721.84 110.54 731.37 115.38 740.66 120.54 749.63 125.93 758.13 131.62 766.04 137.59 773.3 143.77 779.75 150.19 785.27 156.83 789.9 163.62 793.46 170.6 795.9 177.73 797.37 184.96 797.71 192.31 796.95 199.74 795.36 207.24 792.83 214.79 789.48 222.38 785.69 229.99 781.41 237.61 776.82 245.24 772.37 252.86 768.03 260.47 764.03 268.07 760.78 275.64 758.27 283.2 756.68 290.73 756.33 298.23 757.15 305.71 759.22 313.17 762.7 320.61 767.42 328.03 773.31 335.44 780.37 342.83 788.3 350.22 796.9 357.6 806.01 364.98 815.25 372.36 824.32 379.75 833.03 387.13 840.97 394.53 847.84 401.94 853.52 409.35 857.67 416.78 860.09 424.22 860.85 431.66 859.75 439.03 856.86 446.31 852.45 453.58 846.53 460.77 839.34 467.86 831.25 474.93 822.42 481.88 813.14 488.72 803.82 495.52 794.63 502.17 785.86 508.67 777.83 515.12 770.66 521.38 764.51 527.44 757.76 536.32 752.35 552.74 753.42 560.22 757 567.25 767.89 579.71 774 585.12 786.07 600.69 779.87 614.88 772.42 619.31 766.34 622.68 759.43 626.3 751.82 630.24 743.66 634.69 734.98 639.55 725.93 644.87 716.61 650.78 707.12 657.2 697.55 664.15 687.98 671.67 678.51 679.69 669.2 688.18 660.11 697.09 651.29 706.35 642.77 715.85 634.59 725.51 626.76 735.19 619.28 744.77 612.19 754.12 605.44 763.09 599.01 771.5 592.94 779.29 587.16 786.25 581.61 792.24 573.84 799.23 559.38 805.6 552.49 804.91 545.83 801.74 532.41 790.29 525.5 783.15 520.9 778.54 516.14 774.15 511.21 770.24 503.74 766.2 487.84 765.37 479.38 769.22 473.66 773.66 467.74 779.31 461.62 786.03 455.49 793.73 449.16 802.05 442.65 810.71 436.12 819.5 429.42 827.99 422.54 835.83 415.66 842.84 408.61 848.61 401.41 852.85 394.21 855.55 386.94 856.39 379.62 855.39 372.3 852.75 364.95 848.42 357.56 842.59 350.18 835.62 342.78 827.65 335.37 818.98 327.98 810.03 320.58 800.99 313.19 792.17 305.83 783.94 298.49 776.45 291.17 769.89 283.9 764.53 276.67 760.36 269.5 757.43 262.38 755.87 255.33 755.49 248.36 756.19 241.46 758.01 234.66 760.61 227.97 763.78 221.37 767.53 214.89 771.44 208.56 775.27 202.32 779.06 196.23 782.37 190.31 785.03 181.67 787.68 165.41 786.71 157.81 782.79 152.89 778.86 148.14 773.89 143.57 767.96 139.04 761.24 134.68 753.75 130.46 745.6 126.25 736.97 122.17 727.91 118.2 718.56 114.19 709.05 110.28 699.47 106.43 689.93 102.51 680.51 98.64 671.29 94.81 662.35 90.87 653.73 86.95 645.47 83.06 637.59 79.04 630.14 75.05 623.1 71.07 616.45 66.99 610.24 62.94 604.39 58.94 598.86 54.86 593.72 50.85 588.84 46.94 584.17 41.07 577.67 30.05 565.47 24.97 559.52 20.15 553.69 11.64 541.55 7.96 535.1 4.56 528.47 -1.2 514.11 -3.63 506.35 -5.18 501.08 -6.58 495.58 -7.83 489.85 -9.09 484.1 -10.21 478.14 -11.18 471.96 -12.17 465.77 -13.02 459.37 -13.7 452.78 -14.4 446.18 -14.94 439.39 -15.3 432.43 -15.67 425.46 -15.85 418.33 -15.86 411.03 -15.86 403.73 -15.69 396.36 -15.33 388.93 -14.99 381.5 -14.47 374.02 -13.79 366.48 -13.12 358.95 -12.3 351.38 -11.33 343.76 -10.37 336.15 -9.26 328.51 -8 320.83 -6.74 313.17 -5.32 305.48 -3.73 297.78 -2.12 290.09 -0.33 282.4 1.64 274.72 3.66 267.06 5.89 259.43 8.32 251.83 10.81 244.29 13.5 236.8 16.4 229.38 19.35 222.04 22.49 214.8 25.81 207.68 29.16 200.68 32.66 193.82 36.3 187.14 39.92 180.6 43.65 174.27 47.47 168.16 51.23 162.23 55.06 156.54 58.93 151.13 62.7 145.9 66.51 140.95 70.34 136.29 75.94 129.72 87.1 118.2 92.71 113.19 98.27 108.51 109.74 100 115.74 95.98 121.91 91.81 135.11 83 142.21 78.18 147.09 74.64 152.17 70.94 157.44 67.08 162.81 62.92 168.38 58.6 174.13 54.15 179.99 49.44 186.04 44.66 192.24 39.82 198.55 34.85 205.02 29.93 211.62 25.11 218.31 20.32 225.12 15.73 232.05 11.42 239.04 7.3 246.13 3.56 253.29 0.22 260.51 -2.79 267.79 -5.33 275.12 -7.38 282.5 -9.09 289.91 -10.3 297.35 -11.04 304.81 -11.5 312.3 -11.55 319.79 -11.25 327.31 -10.83 334.82 -10.18 342.33 -9.36 349.85 -8.62 357.36 -7.86 364.84 -7.12 372.34 -6.66 379.81 -6.34 387.24 -6.18 394.68 -6.41 402.07 -6.84 409.41 -7.46" stroke-dasharray="5 10" transform="rotate(40.400000000000006, 400, 400)" opacity="0.18"></path><path d="M393.99 19.41C400.62 18.41 407.11 17.27 413.46 16.06 419.8 14.64 425.98 13.27 432.01 11.99 440.96 10.18 458.03 8.22 466.15 8.37 474.11 9.43 489.26 14.5 496.51 18.45 501.32 21.52 506.03 24.98 510.64 28.78 515.31 32.73 519.92 36.93 524.5 41.3 529.17 45.69 533.85 50.15 538.56 54.64 543.42 58.99 548.36 63.28 553.41 67.48 558.67 71.44 564.09 75.25 569.7 78.91 575.56 82.28 581.66 85.49 588.01 88.55 594.65 91.33 601.56 93.99 608.76 96.56 616.24 98.91 624 101.22 632.02 103.53 640.27 105.71 648.73 107.96 657.36 110.29 666.11 112.61 674.93 115.08 683.75 117.73 692.52 120.45 701.16 123.4 709.57 126.6 717.7 129.93 725.45 133.53 732.71 137.41 739.47 141.47 745.58 145.81 750.96 150.43 755.65 155.23 759.5 160.3 762.44 165.63 764.6 171.12 765.84 176.86 766.14 182.8 765.73 188.89 764.47 195.17 762.44 201.61 759.92 208.16 756.83 214.86 753.29 221.66 749.66 228.54 745.89 235.52 742.12 242.56 738.75 249.66 735.72 256.8 733.2 263.98 731.51 271.19 730.61 278.42 730.61 285.65 731.74 292.9 733.9 300.14 737.12 307.37 741.49 314.61 746.85 321.84 753.1 329.03 760.22 336.23 767.95 343.4 776.09 350.54 784.54 357.68 792.97 364.78 801.13 371.84 808.88 378.91 815.9 385.94 821.93 392.91 826.92 399.89 830.56 406.82 832.72 413.69 833.46 420.56 832.59 427.29 830.18 433.86 826.46 440.43 821.4 446.84 815.18 453.09 808.12 459.32 800.31 465.39 791.98 471.27 783.48 477.13 774.93 482.8 766.57 488.27 758.68 493.71 751.36 498.95 744.77 503.97 736.78 511.35 727.38 524.96 725.99 531.21 727.03 537.23 733.57 548.34 738.22 553.54 743.33 558.72 752.26 568.97 755.29 574.24 756.88 579.92 754.96 592.51 751.3 599.65 747.86 604.89 743.58 610.46 738.54 616.38 732.87 622.74 726.54 629.47 719.64 636.58 712.29 644.09 704.51 651.95 696.39 660.13 688.03 668.59 679.47 677.28 670.8 686.13 662.07 695.05 653.34 703.98 644.68 712.8 636.11 721.43 627.69 729.75 619.45 737.65 611.39 745.06 603.56 751.84 595.96 757.86 588.6 763.15 581.48 767.53 574.59 770.94 567.94 773.46 561.51 774.96 555.27 775.41 549.25 775.04 543.4 773.73 537.67 771.54 532.13 768.79 526.68 765.42 521.3 761.57 516.06 757.62 510.84 753.55 505.63 749.54 497.94 744.44 482.45 738.57 474.55 738.66 469.29 740.3 463.92 743.04 458.44 746.88 452.98 751.88 447.38 757.83 441.66 764.57 435.94 772.03 430.09 779.9 424.1 787.92 418.11 795.96 411.99 803.63 405.73 810.67 399.47 816.95 393.08 822.12 386.56 825.96 380.05 828.48 373.49 829.39 366.9 828.7 360.32 826.6 353.71 823.01 347.09 818.07 340.49 812.08 333.88 805.12 327.28 797.42 320.7 789.33 314.14 780.99 307.62 772.65 301.12 764.64 294.67 757.07 288.27 750.14 281.92 744.1 275.63 738.96 269.42 734.81 263.27 731.81 257.21 729.84 251.25 728.86 245.35 728.97 239.57 729.9 233.92 731.53 228.34 733.92 222.88 736.71 217.58 739.73 209.79 744.63 195.07 753.04 188.13 755.71 181.41 756.82 168.72 753.62 162.7 749.19 158.72 745.19 154.84 740.35 151.05 734.74 147.21 728.51 143.44 721.65 139.73 714.25 135.94 706.43 132.19 698.24 128.46 689.78 124.63 681.13 120.81 672.37 116.99 663.57 113.06 654.79 109.13 646.11 105.2 637.56 101.15 629.19 97.12 621.03 93.1 613.12 88.99 605.47 84.92 598.1 80.89 591 76.82 584.2 72.82 577.66 68.92 571.38 65 565.37 61.22 559.58 57.58 553.98 53.98 548.61 50.54 543.39 47.29 538.28 42.63 530.91 34.46 516.58 30.97 509.46 27.83 502.41 22.65 487.93 20.58 480.43 18.73 472.81 15.84 456.83 14.75 448.43 14.05 442.78 13.48 436.95 13.04 430.95 12.56 424.95 12.2 418.78 11.97 412.45 11.69 406.11 11.53 399.61 11.51 392.95 11.43 386.29 11.49 379.55 11.67 372.75 11.81 365.96 12.09 359.11 12.51 352.21 12.89 345.32 13.42 338.39 14.1 331.44 14.77 324.5 15.6 317.55 16.59 310.59 17.61 303.66 18.8 296.74 20.19 289.84 21.62 282.98 23.25 276.16 25.08 269.4 26.99 262.69 29.11 256.06 31.45 249.52 33.86 243.05 36.49 236.7 39.33 230.48 42.23 224.35 45.32 218.38 48.6 212.57 51.92 206.89 55.39 201.39 59 196.1 62.61 190.93 66.33 185.99 70.14 181.27 75.81 174.51 87.3 162.34 93.04 156.91 98.63 151.81 109.68 142.59 115.14 138.35 120.47 134.13 131.19 125.75 136.64 121.42 142.12 116.72 153.6 106.42 159.66 100.74 163.78 96.63 168.05 92.37 172.47 87.98 176.96 83.36 181.61 78.64 186.42 73.84 191.31 68.91 196.37 63.97 201.59 59.07 206.89 54.16 212.34 49.39 217.95 44.8 223.63 40.34 229.46 36.16 235.41 32.31 241.44 28.72 247.58 25.52 253.82 22.77 260.13 20.33 266.52 18.36 272.99 16.87 279.52 15.69 286.11 14.95 292.74 14.64 299.42 14.56 306.14 14.81 312.88 15.36 319.65 15.97 326.43 16.76 333.22 17.67 340.03 18.46 346.83 19.24 353.62 19.96 360.41 20.39 367.18 20.68 373.91 20.79 380.65 20.53 387.34 20.07 393.98 19.41" stroke-dasharray="8 1" transform="rotate(44.44, 400, 400)" opacity="0.28"></path><path d="M381.4 46.3C387.4 45.28 393.31 44.14 399.13 42.91 407.8 40.77 424.68 36.76 432.88 35.22 441.01 34.19 456.9 34.36 464.7 35.74 472.51 38.05 488.09 45.35 495.92 50.2 501.24 53.77 506.6 57.64 512.02 61.75 517.57 65.95 523.2 70.31 528.94 74.77 534.83 79.2 540.86 83.64 547.04 88.07 553.4 92.35 559.92 96.55 566.62 100.64 573.5 104.51 580.57 108.24 587.81 111.83 602.77 118.22 618.32 124.08 634.24 129.54 650.25 134.22 666.04 138.84 681.14 143.63 695.21 148.21 707.68 153.35 717.99 159.18 726.16 165.31 731.51 172.33 733.84 180.27 733.91 186.61 730.03 200.6 726.46 208.2 723.76 213.46 720.8 218.89 717.69 224.48 714.76 230.17 711.94 236 709.34 241.95 707.28 247.99 705.69 254.13 704.68 260.35 704.5 266.64 705.08 273 706.46 279.4 708.83 285.86 712.05 292.35 716.12 298.86 721.1 305.4 726.82 311.95 733.18 318.5 740.16 325.07 747.52 331.63 755.11 338.16 762.83 344.71 770.42 351.23 777.68 357.7 784.52 364.19 790.66 370.62 795.91 377 800.26 383.38 803.44 389.69 805.34 395.94 806.06 402.18 805.4 408.28 803.41 414.21 800.31 420.15 796.03 425.92 790.72 431.54 784.63 437.15 777.82 442.59 770.46 447.87 762.83 453.15 755.03 458.26 747.23 463.21 739.69 468.16 732.48 472.95 725.74 477.59 719.69 482.23 714.32 486.74 709.71 491.11 704.58 497.65 699.78 510.3 699.88 516.5 701.69 522.81 708.03 535.67 711.86 542.35 715.8 549.44 722.03 564.72 723.79 573.06 724.49 585.14 722.45 598.25 717.64 612.39 710.64 627.51 701.1 643.39 689.47 659.7 676.35 676.02 661.91 691.84 646.65 706.5 630.97 719.57 615.16 730.31 599.55 738.12 591.84 740.99 584.25 743.02 576.79 744.2 569.46 744.69 562.26 744.36 555.23 743.26 548.32 741.63 541.57 739.37 534.96 736.58 528.49 733.56 522.15 730.25 515.93 726.77 509.82 723.48 503.81 720.32 497.89 717.44 489.17 714.29 472.1 712.58 463.67 714.54 458.09 717.2 452.52 720.76 446.92 725.2 441.35 730.55 435.75 736.59 430.12 743.19 424.49 750.3 418.82 757.63 413.1 764.98 407.38 772.26 401.6 779.14 395.76 785.42 389.93 791.01 384.03 795.62 378.08 799.08 372.13 801.41 366.19 802.37 360.27 801.95 354.35 800.33 348.46 797.4 342.6 793.28 336.75 788.21 330.93 782.22 325.17 775.49 319.42 768.31 313.72 760.77 308.08 753.07 302.47 745.48 296.93 738.1 291.47 731.1 286.04 724.7 280.69 718.95 275.45 713.92 267.68 708.16 252.73 702.26 245.58 701.95 238.59 703.46 225.26 709.43 218.92 713.15 212.71 716.97 200.82 722.86 195.1 724.37 187.43 724.55 180.02 721.84 172.8 716.23 165.24 708.28 157.74 697.78 150.26 685.22 142.31 671.21 134.33 656.04 126.35 640.25 117.99 624.2 109.74 608.26 101.72 592.72 97.66 585.13 93.7 577.7 89.86 570.43 86.04 563.33 82.36 556.41 78.83 549.67 75.37 543.09 72.1 536.68 69.01 530.43 66.02 524.33 63.24 518.36 60.68 512.51 58.22 506.78 55.98 501.15 53.97 495.57 51.19 487.39 46.81 471.25 45.16 463.21 43.74 455.2 41.69 438.99 40.99 430.73 40.36 422.4 39.52 405.31 39.28 396.53 39.06 390.65 38.93 384.66 38.88 378.58 38.75 372.5 38.7 366.4 38.75 360.28 38.73 354.17 38.81 348.05 39 341.93 39.15 335.83 39.42 329.73 39.83 323.65 40.24 317.6 40.79 311.57 41.51 305.59 42.27 299.64 43.2 293.75 44.33 287.93 46.23 279.31 51.21 262.62 54.32 254.61 57.8 246.84 65.98 232.15 70.62 225.28 75.54 218.71 86.18 206.57 91.82 201.01 95.59 197.42 99.43 193.99 103.34 190.73 110.95 184.25 118.67 178.27 126.42 172.67 133.7 166.75 140.98 160.9 148.27 154.93 155.12 148.21 162.09 141.1 169.23 133.51 176.15 124.99 183.4 116 191.04 106.65 194.86 101.76 198.8 96.85 202.87 91.96 206.96 87.03 211.18 82.2 215.53 77.5 219.93 72.88 224.46 68.48 229.12 64.34 233.83 60.4 238.68 56.79 243.64 53.54 251.23 49.3 267.06 43.4 275.26 41.76 283.62 40.93 300.77 41.33 309.52 42.32 315.4 43.07 321.32 43.94 327.28 44.88 333.25 45.67 339.25 46.42 345.26 47.1 351.28 47.49 357.31 47.72 363.34 47.78 369.36 47.48 375.38 46.98 381.39 46.3" stroke-dasharray="4 6" transform="rotate(48.48, 400, 400)" opacity="0.94"></path><path d="M377.62 73.18C388.66 70.87 399.62 68.23 410.48 65.6 421.37 62.74 432.21 60.68 443.05 59.76 454 59.69 465.04 61.25 476.23 64.46 487.66 68.85 499.38 74.75 511.44 81.93 523.86 89.73 536.72 98.26 550.03 107.19 563.68 115.89 577.73 124.48 592.04 132.75 606.43 140.23 620.77 147.22 634.78 153.74 648.24 159.4 660.8 164.76 672.06 169.94 681.97 174.59 690 179.39 695.83 184.46 699.84 189.44 701.5 194.96 700.86 201.09 698.88 207.42 695.27 214.48 690.58 222.24 686.18 230.32 682.08 239.08 679.03 248.44 678.32 258.09 679.88 268.25 684.09 278.81 691.48 289.57 701.41 300.61 713.41 311.85 727.02 323.19 740.94 334.63 753.96 346.07 765.36 357.56 773.68 369 777.97 380.32 778.32 391.64 774.14 402.56 765.96 413.07 755.04 423.59 741.89 433.73 727.7 443.53 713.88 453.4 701.09 463.03 690.14 472.5 681.9 482.19 676.28 491.9 673.22 501.75 672.97 512.05 674.55 522.72 677.32 533.86 681.29 545.66 685.1 558.1 688.11 571.2 690.5 584.94 691.12 599.25 689.72 613.97 686.75 628.85 681.57 643.65 674.34 657.95 665.6 671.46 655.19 683.68 643.46 694.11 630.84 702.68 617.44 708.81 603.59 712.23 589.48 713.49 575.32 712.21 561.3 708.69 547.42 704.22 533.84 698.77 520.63 693.19 507.69 689.04 495.09 686.46 482.84 686.18 470.8 689.22 459.02 695.23 447.45 704.06 436 715.59 424.67 728.58 413.43 741.88 402.24 754.62 391.09 765.14 379.98 772.19 368.87 775.48 358.05 774.07 347.54 768.23 337.02 759.06 326.83 747 316.99 733.28 307.16 719.39 297.71 706.14 288.66 694.49 279.61 685.45 270.96 679.07 262.73 675.38 254.45 674.65 246.53 675.94 238.97 678.55 231.25 682.46 223.79 686.24 216.53 689.2 208.99 691.45 201.54 691.82 194.14 690.03 186.33 686.53 178.5 680.7 170.64 672.74 162.37 663.2 154.1 651.98 145.89 639.5 137.44 626.16 129.19 612.14 121.27 597.81 113.41 583.33 106.08 568.93 99.42 554.8 93.1 540.91 87.58 527.43 82.95 514.38 78.75 501.66 75.43 489.33 72.97 477.34 70.79 465.6 69.31 454.07 68.46 442.7 67.57 431.46 67.1 420.26 66.98 409.08 66.53 397.93 66.29 386.73 66.25 375.5 65.8 364.26 65.59 353.24 65.67 342.47 65.54 331.72 65.89 321.27 66.79 311.17 67.81 301.14 69.6 291.52 72.19 282.38 75.16 273.35 79.04 264.85 83.79 256.91 88.98 249.07 94.97 241.77 101.66 235.03 108.57 228.26 115.99 221.92 123.79 215.94 131.48 209.71 139.35 203.61 147.3 197.55 154.89 190.91 162.47 184.07 170.02 176.93 177.12 169.01 184.21 160.68 191.35 151.96 198.12 142.59 205.05 132.99 212.17 123.36 219.1 113.61 226.35 104.27 233.96 95.64 241.52 87.64 249.51 80.83 257.93 75.46 266.39 71.19 275.29 68.49 284.6 67.35 293.98 67.05 303.73 67.89 313.82 69.58 323.95 71.15 334.37 72.82 345.02 74.27 355.69 74.61 366.57 74.26 377.61 73.18" stroke-dasharray="9 4" transform="rotate(52.52, 400, 400)" opacity="0.86"></path><path d="M384.44 100.07C394.81 97.81 405.31 95.23 415.93 92.6 426.59 89.69 437.42 87.4 448.43 86.04 459.54 85.34 470.88 86.04 482.47 88.21 494.21 91.46 506.23 96.18 518.52 102.21 530.95 109.03 543.6 116.79 556.38 125.2 569.16 133.73 581.9 142.47 594.4 151.18 606.55 159.42 618.14 167.37 628.89 174.95 638.8 181.79 647.48 188.26 654.65 194.41 662.66 202.58 667.84 218.09 665.49 226.08 662.96 231.39 659.7 237.15 656.22 243.4 653.66 249.71 651.92 256.57 651.52 263.98 653.36 271.51 657.23 279.57 663.27 288.1 671.75 296.75 682.04 305.81 693.65 315.22 706.2 324.69 718.62 334.46 729.98 344.46 739.79 354.48 746.9 364.69 750.59 375.06 751.04 385.43 747.69 395.71 740.92 405.89 731.74 416.1 720.42 426.27 707.85 436.42 695.18 446.67 682.88 457.01 671.66 467.48 662.33 478.18 654.92 489.13 649.56 500.38 646.6 511.96 645.44 523.94 645.68 536.31 647.48 549 649.79 562.05 652.1 575.35 654.61 588.73 656.25 602.09 656.69 615.2 656.32 627.84 654.32 639.73 650.67 650.53 645.86 660.15 639.44 668.15 631.6 674.23 622.78 678.67 612.84 680.99 602.03 681.19 590.66 680.05 578.75 677.27 566.53 673.27 554.11 669.24 541.6 665.12 529.15 661.57 516.72 659.8 504.43 659.75 492.37 661.85 480.4 666.76 468.66 674.01 457.17 683.34 445.75 694.57 434.56 706.64 423.59 718.61 412.66 729.87 401.91 739.08 391.36 745.31 380.82 748.41 370.68 747.54 360.96 742.91 351.22 735.39 341.86 725.17 332.9 713.16 323.89 700.56 315.24 687.95 306.96 676.16 298.59 666.1 290.54 657.94 282.79 651.89 274.89 648.36 267.22 646.78 259.75 646.78 252.04 648.47 244.44 650.77 236.91 653.14 229.06 655.72 221.21 657.39 213.35 657.8 205.14 657.3 196.91 655.07 188.69 651.09 180.19 645.83 171.78 638.88 163.54 630.47 155.24 621.02 147.26 610.45 139.72 599.05 132.39 587.08 125.68 574.64 119.68 561.97 114.11 549.13 109.36 536.3 105.47 523.6 102.03 510.95 99.41 498.53 97.59 486.38 96.02 474.34 95.07 462.56 94.67 451.07 94.19 439.65 94.04 428.47 94.14 417.51 93.86 406.59 93.69 395.85 93.63 385.32 93.09 374.79 92.7 364.69 92.51 355.02 92.07 345.35 92.02 336.12 92.46 327.34 92.98 318.56 94.2 310.23 96.18 302.38 98.52 294.49 101.74 287.05 105.83 280.04 110.37 272.93 115.75 266.16 121.87 259.69 128.32 252.98 135.36 246.43 142.87 239.95 150.44 233.04 158.29 226.03 166.33 218.86 174.15 211.09 182.03 203.05 189.91 194.7 197.43 185.77 204.92 176.59 212.38 167.25 219.47 157.61 226.59 148.06 233.76 138.82 240.65 129.82 247.69 121.52 254.92 114.16 261.97 107.59 269.3 102.28 276.94 98.37 284.48 95.45 292.38 93.92 300.64 93.68 308.87 94.05 317.47 95.28 326.44 97.12 335.39 98.67 344.71 100.21 354.39 101.46 364.05 101.65 374.06 101.19 384.43 100.07" stroke-dasharray="9 2" transform="rotate(56.56, 400, 400)" opacity="0.86"></path><path d="M398.63 126.95C408.47 124.77 418.51 122.29 428.74 119.74 438.99 116.84 449.45 114.43 460.1 112.74 470.79 111.52 481.67 111.46 492.7 112.66 503.76 114.78 514.93 118.25 526.13 123 537.26 128.58 548.32 135.2 559.16 142.67 569.74 150.51 579.92 158.84 589.5 167.43 598.54 175.88 606.74 184.31 613.91 192.59 620.26 200.38 625.38 207.9 629.14 215.13 632.01 221.77 633.52 228.17 633.73 234.39 633.35 240.12 632.01 245.8 629.95 251.51 628.09 256.91 626.17 262.49 624.58 268.31 624.22 273.98 624.89 280.01 626.9 286.41 630.87 292.77 636.48 299.57 643.72 306.79 652.72 314.01 662.88 321.67 673.76 329.75 685.08 337.83 695.97 346.32 705.72 355.19 714.06 364.07 720.07 373.32 723.22 382.94 723.74 392.56 721.1 402.33 715.6 412.25 708.02 422.2 698.46 432.33 687.57 442.64 676.27 453.03 664.86 463.65 653.93 474.5 644.18 485.47 635.69 496.7 628.69 508.16 623.57 519.72 619.97 531.48 617.74 543.35 617.09 555.18 617.28 566.97 617.97 578.53 619.37 589.77 620.6 600.5 621.36 610.5 621.97 619.74 621.63 627.89 620.19 634.72 616.43 642.53 601.63 648.44 590.94 646.82 582.88 644.74 574.02 641.85 564.55 638.56 554.71 635.89 544.45 633.7 533.92 632.45 523.23 633.02 512.41 635.22 501.57 639.25 490.69 645.51 479.85 653.49 469.14 662.88 458.43 673.53 447.86 684.53 437.47 695.14 427.09 704.97 416.87 712.97 406.84 718.42 396.8 721.31 387.16 720.91 377.91 717.34 368.62 711.31 359.68 702.85 351.07 692.59 342.4 681.5 334.01 669.93 325.89 658.57 317.65 648.2 309.62 639.01 301.77 631.31 293.75 625.54 285.84 621.42 278.03 618.8 269.98 617.9 261.96 617.98 253.97 618.67 245.71 620.16 237.46 621.53 229.21 622.43 220.75 623.17 212.34 622.91 204.02 621.5 195.62 619.35 187.42 615.87 179.51 611.09 171.71 605.48 164.35 598.67 157.53 590.84 151.03 582.35 145.19 573.06 140.1 563.18 135.45 552.9 131.59 542.24 128.55 531.37 125.91 520.32 124.01 509.21 122.81 498.13 121.79 487.02 121.3 476.01 121.27 465.18 121.09 454.36 121.15 443.73 121.4 433.34 121.23 422.95 121.1 412.79 121 402.88 120.41 392.96 119.89 383.51 119.51 374.51 118.84 365.48 118.48 356.88 118.53 348.7 118.61 340.46 119.3 332.59 120.66 325.07 122.35 317.44 124.84 310.09 128.14 302.98 131.89 295.67 136.47 288.49 141.8 281.41 147.52 274 153.9 266.57 160.84 259.06 167.97 251.13 175.5 243.03 183.33 234.74 191.13 226.02 199.09 217.11 207.13 208.06 214.97 198.73 222.82 189.39 230.67 180.18 238.22 171.02 245.77 162.25 253.32 154.06 260.58 146.35 267.89 139.52 275.28 133.74 282.44 128.77 289.76 125 297.25 122.51 304.59 120.82 312.17 120.27 320.01 120.75 327.76 121.58 335.83 123.03 344.22 124.87 352.55 126.31 361.25 127.64 370.31 128.66 379.35 128.67 388.78 128.11 398.62 126.95" stroke-dasharray="7 3" transform="rotate(60.599999999999994, 400, 400)" opacity="0.70"></path><path d="M413.47 153.84C422.73 151.76 432.12 149.42 441.59 146.99 451.08 144.19 460.66 141.74 470.28 139.84 479.9 138.23 489.53 137.55 499.11 137.91 508.63 138.99 518.01 141.25 527.18 144.67 536.17 148.88 544.81 154.14 552.99 160.31 560.84 167.02 568.07 174.4 574.57 182.27 580.57 190.29 585.7 198.54 589.87 206.9 593.47 215.06 596.08 223.15 597.68 231.11 598.84 238.68 599.14 246.07 598.71 253.27 598.23 260.05 597.38 266.69 596.38 273.24 595.98 279.43 595.92 285.62 596.48 291.86 598.27 297.85 601.08 304 605.05 310.34 610.56 316.53 617.28 322.99 625.11 329.76 634.1 336.44 643.73 343.48 653.61 350.88 663.59 358.24 672.96 365.99 681.18 374.14 688.17 382.27 693.19 390.82 695.85 399.8 696.41 408.77 694.39 417.97 690 427.37 683.87 436.79 675.97 446.42 666.77 456.24 656.97 466.08 646.75 476.1 636.56 486.25 626.99 496.4 618.12 506.63 610.19 516.88 603.6 527.04 598.15 537.1 593.83 546.94 590.89 556.52 588.84 565.72 587.5 574.36 587.09 582.51 586.94 589.9 586.83 596.36 585.71 609.02 576.28 613.84 569.66 611.43 564.51 609.68 558.55 607.77 551.88 606.01 544.85 605.2 537.24 605.15 529.14 606.15 520.82 608.77 512.13 612.77 503.18 618.19 494.12 625.25 484.89 633.48 475.55 642.56 466.17 652.39 456.74 662.21 447.31 671.47 437.88 679.95 428.45 686.81 419.07 691.54 409.69 694.2 400.55 694.17 391.67 691.52 382.76 686.83 374.07 680 365.6 671.48 357.06 662.01 348.7 651.78 340.48 641.31 332.17 631.26 323.96 621.79 315.85 613.2 307.6 605.94 299.4 599.89 291.24 595.06 282.93 591.71 274.65 589.39 266.39 587.9 258.01 587.44 249.68 587.35 241.43 587.36 233.13 587.75 224.98 587.78 217.05 587.26 209.19 586.58 201.65 585.06 194.51 582.66 187.6 579.79 181.21 575.97 175.41 571.22 169.97 565.98 165.21 559.89 161.17 553.07 157.53 545.86 154.62 538.04 152.44 529.75 150.56 521.22 149.33 512.34 148.68 503.23 148.13 494.01 147.99 484.64 148.21 475.22 148.23 465.76 148.43 456.3 148.74 446.89 148.62 437.48 148.51 428.14 148.37 418.92 147.75 409.69 147.17 400.77 146.66 392.16 145.84 383.54 145.26 375.18 145.01 367.09 144.73 358.93 144.96 350.98 145.76 343.21 146.8 335.32 148.55 327.53 151.03 319.82 153.91 311.91 157.56 304.01 161.94 296.07 166.72 287.88 172.18 279.61 178.24 271.23 184.6 262.59 191.44 253.84 198.68 245.02 206.04 236.02 213.69 227.01 221.53 218.09 229.33 209.18 237.24 200.52 245.22 192.24 253.04 184.26 260.9 176.88 268.77 170.24 276.43 164.19 284.12 159.06 291.84 154.96 299.37 151.58 306.97 149.26 314.65 148 322.18 147.32 329.85 147.52 337.68 148.48 345.4 149.57 353.34 151.07 361.5 152.77 369.6 154.01 377.97 155.08 386.63 155.83 395.26 155.67 404.2 155.01 413.46 153.84" stroke-dasharray="5 7" transform="rotate(64.64, 400, 400)" opacity="0.87"></path><path d="M421.92 180.72C430.42 178.77 438.88 176.6 447.26 174.34 455.64 171.71 463.92 169.32 472.07 167.33 480.17 165.48 488.1 164.35 495.77 164.02 503.35 164.22 510.61 165.4 517.47 167.56 524.15 170.39 530.36 174.19 536.01 178.89 541.4 184.15 546.15 190.17 550.23 196.82 553.99 203.8 557.04 211.21 559.37 218.94 561.46 226.73 562.88 234.67 563.72 242.67 564.5 250.53 564.88 258.36 564.99 266.1 565.41 273.61 565.84 281.01 566.47 288.31 567.84 295.36 569.72 302.33 572.25 309.26 575.85 315.96 580.29 322.69 585.61 329.46 592.02 336.07 599.23 342.79 607.08 349.66 615.62 356.44 624.4 363.41 633.11 370.6 641.68 377.74 649.56 385.15 656.37 392.84 662.14 400.5 666.26 408.47 668.47 416.75 669.05 425.04 667.56 433.44 664.13 441.93 659.31 450.43 652.94 459.01 645.36 467.62 637.13 476.22 628.28 484.8 619.17 493.32 610.28 501.76 601.64 510.06 593.49 518.13 586.17 526.02 579.59 533.58 573.81 540.7 569.08 547.51 565.11 553.76 561.82 559.34 553.58 575.83 545.19 578.82 540.87 577.4 535.61 576.72 521.63 578.84 513.04 582.71 506.96 586.91 500.41 592.16 493.45 598.39 486.38 605.74 478.97 613.79 471.27 622.25 463.51 631.07 455.52 639.65 447.34 647.59 439.14 654.79 430.77 660.6 422.26 664.65 413.76 667.08 405.31 667.33 396.95 665.46 388.59 661.95 380.29 656.61 372.06 649.74 363.82 641.93 355.62 633.22 347.48 624 339.29 614.78 331.14 605.68 323.02 596.96 314.86 589.02 306.72 581.82 298.62 575.46 290.49 570.21 282.41 565.8 274.42 562.18 266.44 559.56 258.58 557.49 250.9 555.82 243.31 554.78 235.96 553.83 228.92 552.79 222.07 551.99 215.61 550.85 209.61 549.26 201.32 546.46 188.11 537.41 183.35 531.07 180.72 526.37 178.7 521.07 177.3 515.21 176.11 509.16 175.42 502.63 175.21 495.69 174.99 488.62 175.1 481.22 175.46 473.55 175.59 465.82 175.84 457.88 176.14 449.76 176.04 441.63 175.91 433.36 175.75 424.98 175.12 416.6 174.5 408.31 173.93 400.12 173.04 391.92 172.34 383.79 171.88 375.75 171.34 367.66 171.2 359.61 171.53 351.58 172.01 343.49 173.09 335.37 174.78 327.25 176.78 319.01 179.47 310.72 182.81 302.39 186.53 293.95 190.89 285.47 195.85 276.96 201.14 268.4 206.96 259.86 213.24 251.42 219.73 243.02 226.6 234.82 233.77 226.91 241.03 219.22 248.51 211.96 256.15 205.23 263.78 198.93 271.51 193.31 279.32 188.47 287.04 184.19 294.82 180.76 302.63 178.23 310.33 176.26 318.08 175.14 325.86 174.85 333.56 174.9 341.31 175.57 349.13 176.77 356.88 177.92 364.74 179.3 372.7 180.76 380.62 181.72 388.68 182.49 396.88 182.96 405.07 182.64 413.41 181.89 421.91 180.72" stroke-dasharray="7 7" transform="rotate(68.68, 400, 400)" opacity="0.78"></path><path d="M419.99 207.61C427.51 205.81 434.84 203.84 441.94 201.79 449.04 199.38 455.89 197.14 462.47 195.18 472.11 192.53 489.59 190.68 497.26 191.9 504.3 194.68 515.76 205.04 520.13 212.37 522.78 217.87 524.97 223.92 526.72 230.4 528.49 237.12 529.93 244.15 531.12 251.41 532.51 258.74 533.82 266.2 535.15 273.72 536.93 281.2 538.93 288.69 541.25 296.16 544.26 303.52 547.75 310.84 551.79 318.11 556.63 325.26 562.07 332.37 568.06 339.47 574.76 346.46 581.88 353.45 589.29 360.47 597.02 367.42 604.71 374.42 612.14 381.49 619.31 388.52 625.78 395.65 631.3 402.87 635.96 410.09 639.28 417.43 641.1 424.88 641.67 432.33 640.62 439.71 638.02 447 634.33 454.28 629.34 461.45 623.28 468.47 616.6 475.44 609.23 482.22 601.43 488.74 593.58 495.18 585.67 501.3 577.9 507.05 570.56 512.63 563.59 517.78 557.09 522.43 548.63 528.8 535.38 538.28 530.33 541.33 518.25 545.32 505.41 548.56 500.42 551.28 496.88 554.14 492.89 557.69 488.45 561.95 483.92 567.15 478.96 573.05 473.58 579.54 468.13 586.72 462.3 594.22 456.1 601.82 449.86 609.51 443.29 616.83 436.41 623.49 429.52 629.49 422.34 634.34 414.91 637.77 407.47 639.95 399.96 640.41 392.41 639.18 384.87 636.68 377.28 632.66 369.68 627.32 362.08 621.12 354.46 614.01 346.85 606.25 339.25 598.25 331.65 590.04 324.09 581.85 316.55 573.99 309.05 566.47 301.64 559.4 294.27 553.03 287.01 547.22 279.9 542 272.9 537.54 266.08 533.61 259.52 530.13 253.12 527.29 247.02 524.74 241.28 522.37 233.23 519.44 219.76 513.46 214.51 509.95 210.21 506.12 204.62 496.21 203.23 490.05 202.42 483.3 202.44 467.5 202.95 458.55 203.11 452.42 203.33 445.95 203.59 439.16 203.47 432.36 203.31 425.26 203.12 417.88 202.51 410.51 201.9 403.05 201.32 395.52 200.43 387.99 199.68 380.39 199.11 372.75 198.42 365.09 198.04 357.37 198.01 349.61 198.06 341.84 198.57 334.01 199.57 326.16 200.79 318.3 202.57 310.42 204.91 302.55 207.55 294.72 210.76 286.93 214.52 279.25 218.57 271.66 223.15 264.23 228.19 257.05 233.49 250.06 239.19 243.4 245.25 237.14 251.49 231.2 258.02 225.77 264.78 220.91 271.64 216.46 278.69 212.66 285.87 209.57 293.08 206.91 300.4 204.96 307.78 203.72 315.15 202.84 322.58 202.58 330.04 202.91 337.48 203.38 344.95 204.26 352.43 205.46 359.89 206.48 367.38 207.61 374.88 208.74 382.37 209.39 389.88 209.85 397.4 210.05 404.92 209.57 412.45 208.75 419.98 207.61" stroke-dasharray="10 6" transform="rotate(72.72, 400, 400)" opacity="0.72"></path><path d="M408.58 234.49C414.99 232.87 421.14 231.11 427.01 229.31 435.66 226.17 451.39 220.68 458.42 218.83 470.76 218.36 485.76 225.17 489.62 230.11 494.75 238.2 499.14 248.3 503.18 259.86 508.39 272.17 514.16 285.35 520.95 298.92 525.13 305.75 529.67 312.63 534.57 319.52 539.99 326.39 545.75 333.25 551.79 340.09 558.21 346.9 564.77 353.69 571.37 360.43 578.05 367.15 584.52 373.85 590.63 380.5 596.44 387.14 601.6 393.75 605.96 400.32 609.64 406.89 612.27 413.41 613.73 419.88 614.27 426.35 613.57 432.61 611.67 438.62 608.94 444.63 605.18 450.38 600.5 455.86 595.28 461.3 589.39 466.44 583.01 471.25 576.44 475.99 569.62 480.38 562.7 484.38 555.93 488.3 549.25 491.81 542.75 494.9 536.62 497.91 530.78 500.5 525.24 502.68 515.59 506.94 507.14 509.85 499.61 511.78 490.51 515.93 476.89 524.94 472.04 529.84 468.79 533.91 465.26 538.45 461.45 543.45 457.64 549.06 453.52 555.03 449.08 561.29 444.63 567.9 439.85 574.58 434.76 581.14 429.65 587.64 424.23 593.72 418.52 599.17 412.79 604.07 406.77 608.04 400.48 610.88 394.19 612.8 387.79 613.4 381.31 612.69 374.83 611.02 368.29 608.14 361.71 604.18 355.15 599.48 348.57 593.94 341.99 587.73 335.45 581.17 328.94 574.22 322.48 567.06 316.09 559.93 309.77 552.82 303.59 545.85 297.49 539.22 291.55 532.86 285.8 526.83 274.7 516.25 264.62 507.05 255.9 499.02 247.96 492.6 241.6 486.56 237.01 480.42 232.52 471.36 229.81 455.6 229.98 449.3 230.16 442.65 230.81 427.65 231.06 419.32 230.9 413.64 230.71 407.65 230.5 401.36 229.92 395.06 229.35 388.62 228.8 382.06 227.97 375.51 227.25 368.85 226.66 362.11 225.92 355.39 225.41 348.6 225.17 341.78 224.92 334.99 225.02 328.19 225.49 321.41 226.09 314.68 227.11 308.02 228.59 301.45 230.25 294.99 232.39 288.67 234.99 282.55 240.9 270.81 248.6 260.21 257.79 251.23 267.74 243.38 278.88 237.51 290.84 233.88 296.98 232.49 303.26 231.63 309.65 231.27 316.11 231.08 322.65 231.31 329.24 231.91 335.86 232.5 342.52 233.33 349.18 234.34 355.87 235.11 362.55 235.9 369.2 236.65 375.87 236.96 382.5 237.11 389.07 237.06 395.65 236.45 402.16 235.59 408.57 234.49" stroke-dasharray="4 2" transform="rotate(76.76, 400, 400)" opacity="0.91"></path><path d="M393.1 261.38C403.69 258.13 413.37 254.78 422.08 251.73 430.76 248.26 438.48 245.99 445.27 245.22 452.16 245.18 458.31 247.1 463.89 250.95 469.93 255.88 475.84 262.62 481.88 270.83 488.95 279.85 496.62 289.97 505.03 300.8 514.74 312.01 525.2 323.64 536.1 335.36 547.59 347.22 558.66 359.04 568.51 370.62 577.24 382.24 583.45 393.57 586.35 404.41 586.71 415.25 583.41 425.04 577 433.71 568.82 442.32 558.6 449.77 547.19 456.03 535.67 462.27 524 467.43 512.68 471.64 502.31 476.16 492.59 480.16 483.55 483.98 475.53 488.81 467.88 494.11 460.42 500.2 453.54 507.94 446.42 516.8 438.87 526.65 431.51 537.77 423.46 549.2 414.65 560.12 405.86 570.47 396.24 578.76 385.83 584 375.43 586.6 364.78 585.24 354.12 580.29 343.54 573.06 333.07 563.26 322.96 551.81 313.08 539.85 303.75 527.49 295.22 515.35 287.11 504.08 279.99 493.51 274.09 483.73 268.71 475.08 264.59 466.95 261.84 459.15 259.41 452.06 258.14 444.82 257.94 437.21 257.53 429.87 257.74 421.84 258.41 413.04 258.19 404.28 258.03 394.63 257.87 384.12 256.54 373.6 255.36 362.76 254.46 351.82 252.97 340.97 252.26 330.17 252.52 319.69 252.92 309.51 254.67 299.9 257.8 291.2 261.5 283.07 266.66 276.13 273.12 270.66 280.18 265.92 288.4 262.74 297.49 261.18 307 260.07 317.17 260.24 327.74 261.46 338.52 262.23 349.52 263.32 360.5 264.38 371.56 263.98 382.5 263 393.09 261.38" stroke-dasharray="9 2" transform="rotate(80.80000000000001, 400, 400)" opacity="1.00"></path><path d="M380.89 288.26C389.46 285.52 397.52 282.8 405.05 280.31 412.6 277.35 419.69 275.18 426.36 274 433.2 273.07 439.81 273.49 446.29 275.29 453.2 277.7 460.23 281.52 467.48 286.59 475.39 292.26 483.69 299 492.32 306.55 501.57 314.5 511 323.04 520.31 331.92 529.66 341 538.32 350.24 545.75 359.43 552.26 368.69 556.83 377.8 558.98 386.6 559.43 395.39 557.26 403.42 552.77 410.66 546.99 417.91 539.47 424.42 530.73 430.26 521.58 436.23 511.84 441.72 501.93 446.84 492.31 452.39 482.82 457.91 473.64 463.56 465 470.02 456.61 476.93 448.49 484.36 440.79 492.74 433.14 501.64 425.47 510.84 418.02 520.53 410.35 529.99 402.44 538.65 394.59 546.69 386.39 553.05 377.89 557.11 369.39 559.41 361 558.85 352.84 555.66 344.74 550.84 336.97 543.9 329.69 535.39 322.56 526.17 316.03 516.1 310.28 505.67 304.76 495.4 300.09 485.21 296.38 475.33 292.89 465.97 290.33 456.95 288.73 448.27 287.16 440.07 286.37 432 286.29 424.01 285.87 416.26 285.87 408.36 286.2 400.26 285.8 392.23 285.48 383.88 285.24 375.24 284.11 366.6 283.16 358.08 282.45 349.83 281.21 341.63 280.52 333.81 280.51 326.56 280.82 316.32 286.7 300.53 292.43 295.5 296.95 292.82 302.43 291.22 308.73 290.67 315.33 290.11 322.61 290.3 330.39 291.07 338.33 291.26 346.65 291.59 355.14 291.86 363.69 291.01 372.33 289.81 380.89 288.26" stroke-dasharray="8 11" transform="rotate(84.84, 400, 400)" opacity="0.12"></path><path d="M377.73 315.15C384.53 312.94 391.24 310.85 397.81 308.98 404.42 306.69 410.97 304.91 417.44 303.77 424.05 302.6 430.69 302.29 437.37 302.88 444.3 303.69 451.38 305.48 458.56 308.19 466.04 311.2 473.64 315.08 481.23 319.71 488.99 324.57 496.59 330.07 503.78 336.04 510.79 342.15 517.08 348.62 522.33 355.32 526.91 362.05 530.09 368.93 531.61 375.85 532.08 382.77 530.77 389.4 527.85 395.69 524.07 402.03 518.96 408.11 512.81 413.97 506.22 419.97 498.92 425.89 491.2 431.77 483.42 437.96 475.44 444.27 467.45 450.74 459.62 457.65 451.84 464.79 444.2 472.12 436.76 479.83 429.41 487.63 422.19 495.29 415.1 503 408.06 510.24 401.1 516.68 394.17 522.57 387.26 527.21 380.42 530.23 373.58 532.15 367.11 532.13 361.07 530.31 355.05 527.43 349.48 522.97 344.46 517.25 339.47 510.87 335.07 503.59 331.31 495.71 327.6 487.64 324.55 479.27 322.19 470.83 319.84 462.49 318.12 454.19 317.03 446.07 315.8 438.12 315.08 430.31 314.83 422.71 314.23 415.23 313.94 407.86 313.91 400.64 313.34 393.46 312.9 386.36 312.62 379.41 311.71 372.45 311.01 365.95 310.55 359.96 309.42 351.28 309.17 337.03 310.46 331.71 316.41 324.64 332.77 320.27 340.54 320.21 345.97 319.75 351.86 319.37 358.1 319 364.37 317.84 370.94 316.55 377.73 315.15" stroke-dasharray="8 5" transform="rotate(88.88, 400, 400)" opacity="0.19"></path><path d="M385.12 342.03C395.51 338.29 406.48 335.51 417.61 334.08 428.98 332.16 440.79 332.48 452.49 335.12 464.43 338.05 475.97 343.39 485.99 350.71 495.2 358.23 501.72 367.41 504.23 377.82 504.54 388.23 500.46 398.93 493.08 409.63 484.42 420.63 473.58 432.09 461.82 443.67 449.95 455.81 437.71 468.02 425.87 479.26 414.18 490.06 402.79 498.6 392.23 503.34 381.66 505.7 372.78 503.26 365.76 496.99 358.67 488.97 353.37 478.3 349.96 466.38 346.21 454.1 343.97 441.35 343.12 429.06 341.26 416.85 340.2 405.1 339.99 394.42 338.27 383.74 337.62 375.05 338.11 368.45 338.65 359.44 348.77 350.18 358.61 348.36 365.81 346.02 374.74 343.9 385.12 342.03" stroke-dasharray="5 8" transform="rotate(92.92, 400, 400)" opacity="0.62"></path><path d="M399.56 368.92C406.73 366.51 414.48 364.98 422.38 364.4 430.32 363.4 438.4 363.68 446.12 365.29 453.74 366.81 460.78 369.8 466.56 374.2 471.85 378.59 475.5 384.38 476.86 391.47 477.29 398.56 475.28 406.31 471.36 414.33 466.78 422.42 460.67 430.82 453.66 439.06 446.42 447.31 438.58 455.22 430.72 462.13 422.84 468.62 415.02 473.64 407.71 476.46 400.4 478.25 394.23 477.42 389.27 474.42 384.22 470.59 380.25 464.98 377.39 458.27 374.26 451.19 372.02 443.4 370.71 435.51 368.86 427.56 367.7 419.69 367.36 412.38 366.24 402.02 367.88 387.25 371.07 382.48 375.15 378.05 389.4 371.5 399.56 368.92" stroke-dasharray="3 1" transform="rotate(96.96, 400, 400)" opacity="0.61"></path></g></svg>