<svg xmlns="http://www.w3.org/2000/svg" version="1.1" xmlns:xlink="http://www.w3.org/1999/xlink" xmlns:svgjs="http://svgjs.dev/svgjs" viewBox="0 0 1422 800"><defs><linearGradient x1="50%" y1="0%" x2="50%" y2="100%" id="oooscillate-grad"><stop stop-color="hsl(206, 75%, 49%)" stop-opacity="1" offset="0%"></stop><stop stop-color="hsl(331, 90%, 56%)" stop-opacity="1" offset="100%"></stop></linearGradient></defs><g stroke-width="2" stroke="url(#oooscillate-grad)" fill="none" stroke-linecap="round"><path d="M 0 7770 Q 355.5 -100 711 400 Q 1066.5 900 1422 7770" opacity="0.05"></path><path d="M 0 7700 Q 355.5 -100 711 400 Q 1066.5 900 1422 7700" opacity="0.06"></path><path d="M 0 7630 Q 355.5 -100 711 400 Q 1066.5 900 1422 7630" opacity="0.07"></path><path d="M 0 7560 Q 355.5 -100 711 400 Q 1066.5 900 1422 7560" opacity="0.08"></path><path d="M 0 7490 Q 355.5 -100 711 400 Q 1066.5 900 1422 7490" opacity="0.08"></path><path d="M 0 7420 Q 355.5 -100 711 400 Q 1066.5 900 1422 7420" opacity="0.09"></path><path d="M 0 7350 Q 355.5 -100 711 400 Q 1066.5 900 1422 7350" opacity="0.10"></path><path d="M 0 7280 Q 355.5 -100 711 400 Q 1066.5 900 1422 7280" opacity="0.11"></path><path d="M 0 7210 Q 355.5 -100 711 400 Q 1066.5 900 1422 7210" opacity="0.12"></path><path d="M 0 7140 Q 355.5 -100 711 400 Q 1066.5 900 1422 7140" opacity="0.13"></path><path d="M 0 7070 Q 355.5 -100 711 400 Q 1066.5 900 1422 7070" opacity="0.14"></path><path d="M 0 7000 Q 355.5 -100 711 400 Q 1066.5 900 1422 7000" opacity="0.15"></path><path d="M 0 6930 Q 355.5 -100 711 400 Q 1066.5 900 1422 6930" opacity="0.15"></path><path d="M 0 6860 Q 355.5 -100 711 400 Q 1066.5 900 1422 6860" opacity="0.16"></path><path d="M 0 6790 Q 355.5 -100 711 400 Q 1066.5 900 1422 6790" opacity="0.17"></path><path d="M 0 6720 Q 355.5 -100 711 400 Q 1066.5 900 1422 6720" opacity="0.18"></path><path d="M 0 6650 Q 355.5 -100 711 400 Q 1066.5 900 1422 6650" opacity="0.19"></path><path d="M 0 6580 Q 355.5 -100 711 400 Q 1066.5 900 1422 6580" opacity="0.20"></path><path d="M 0 6510 Q 355.5 -100 711 400 Q 1066.5 900 1422 6510" opacity="0.21"></path><path d="M 0 6440 Q 355.5 -100 711 400 Q 1066.5 900 1422 6440" opacity="0.21"></path><path d="M 0 6370 Q 355.5 -100 711 400 Q 1066.5 900 1422 6370" opacity="0.22"></path><path d="M 0 6300 Q 355.5 -100 711 400 Q 1066.5 900 1422 6300" opacity="0.23"></path><path d="M 0 6230 Q 355.5 -100 711 400 Q 1066.5 900 1422 6230" opacity="0.24"></path><path d="M 0 6160 Q 355.5 -100 711 400 Q 1066.5 900 1422 6160" opacity="0.25"></path><path d="M 0 6090 Q 355.5 -100 711 400 Q 1066.5 900 1422 6090" opacity="0.26"></path><path d="M 0 6020 Q 355.5 -100 711 400 Q 1066.5 900 1422 6020" opacity="0.27"></path><path d="M 0 5950 Q 355.5 -100 711 400 Q 1066.5 900 1422 5950" opacity="0.27"></path><path d="M 0 5880 Q 355.5 -100 711 400 Q 1066.5 900 1422 5880" opacity="0.28"></path><path d="M 0 5810 Q 355.5 -100 711 400 Q 1066.5 900 1422 5810" opacity="0.29"></path><path d="M 0 5740 Q 355.5 -100 711 400 Q 1066.5 900 1422 5740" opacity="0.30"></path><path d="M 0 5670 Q 355.5 -100 711 400 Q 1066.5 900 1422 5670" opacity="0.31"></path><path d="M 0 5600 Q 355.5 -100 711 400 Q 1066.5 900 1422 5600" opacity="0.32"></path><path d="M 0 5530 Q 355.5 -100 711 400 Q 1066.5 900 1422 5530" opacity="0.33"></path><path d="M 0 5460 Q 355.5 -100 711 400 Q 1066.5 900 1422 5460" opacity="0.33"></path><path d="M 0 5390 Q 355.5 -100 711 400 Q 1066.5 900 1422 5390" opacity="0.34"></path><path d="M 0 5320 Q 355.5 -100 711 400 Q 1066.5 900 1422 5320" opacity="0.35"></path><path d="M 0 5250 Q 355.5 -100 711 400 Q 1066.5 900 1422 5250" opacity="0.36"></path><path d="M 0 5180 Q 355.5 -100 711 400 Q 1066.5 900 1422 5180" opacity="0.37"></path><path d="M 0 5110 Q 355.5 -100 711 400 Q 1066.5 900 1422 5110" opacity="0.38"></path><path d="M 0 5040 Q 355.5 -100 711 400 Q 1066.5 900 1422 5040" opacity="0.39"></path><path d="M 0 4970 Q 355.5 -100 711 400 Q 1066.5 900 1422 4970" opacity="0.40"></path><path d="M 0 4900 Q 355.5 -100 711 400 Q 1066.5 900 1422 4900" opacity="0.40"></path><path d="M 0 4830 Q 355.5 -100 711 400 Q 1066.5 900 1422 4830" opacity="0.41"></path><path d="M 0 4760 Q 355.5 -100 711 400 Q 1066.5 900 1422 4760" opacity="0.42"></path><path d="M 0 4690 Q 355.5 -100 711 400 Q 1066.5 900 1422 4690" opacity="0.43"></path><path d="M 0 4620 Q 355.5 -100 711 400 Q 1066.5 900 1422 4620" opacity="0.44"></path><path d="M 0 4550 Q 355.5 -100 711 400 Q 1066.5 900 1422 4550" opacity="0.45"></path><path d="M 0 4480 Q 355.5 -100 711 400 Q 1066.5 900 1422 4480" opacity="0.46"></path><path d="M 0 4410 Q 355.5 -100 711 400 Q 1066.5 900 1422 4410" opacity="0.46"></path><path d="M 0 4340 Q 355.5 -100 711 400 Q 1066.5 900 1422 4340" opacity="0.47"></path><path d="M 0 4270 Q 355.5 -100 711 400 Q 1066.5 900 1422 4270" opacity="0.48"></path><path d="M 0 4200 Q 355.5 -100 711 400 Q 1066.5 900 1422 4200" opacity="0.49"></path><path d="M 0 4130 Q 355.5 -100 711 400 Q 1066.5 900 1422 4130" opacity="0.50"></path><path d="M 0 4060 Q 355.5 -100 711 400 Q 1066.5 900 1422 4060" opacity="0.51"></path><path d="M 0 3990 Q 355.5 -100 711 400 Q 1066.5 900 1422 3990" opacity="0.52"></path><path d="M 0 3920 Q 355.5 -100 711 400 Q 1066.5 900 1422 3920" opacity="0.53"></path><path d="M 0 3850 Q 355.5 -100 711 400 Q 1066.5 900 1422 3850" opacity="0.53"></path><path d="M 0 3780 Q 355.5 -100 711 400 Q 1066.5 900 1422 3780" opacity="0.54"></path><path d="M 0 3710 Q 355.5 -100 711 400 Q 1066.5 900 1422 3710" opacity="0.55"></path><path d="M 0 3640 Q 355.5 -100 711 400 Q 1066.5 900 1422 3640" opacity="0.56"></path><path d="M 0 3570 Q 355.5 -100 711 400 Q 1066.5 900 1422 3570" opacity="0.57"></path><path d="M 0 3500 Q 355.5 -100 711 400 Q 1066.5 900 1422 3500" opacity="0.58"></path><path d="M 0 3430 Q 355.5 -100 711 400 Q 1066.5 900 1422 3430" opacity="0.59"></path><path d="M 0 3360 Q 355.5 -100 711 400 Q 1066.5 900 1422 3360" opacity="0.59"></path><path d="M 0 3290 Q 355.5 -100 711 400 Q 1066.5 900 1422 3290" opacity="0.60"></path><path d="M 0 3220 Q 355.5 -100 711 400 Q 1066.5 900 1422 3220" opacity="0.61"></path><path d="M 0 3150 Q 355.5 -100 711 400 Q 1066.5 900 1422 3150" opacity="0.62"></path><path d="M 0 3080 Q 355.5 -100 711 400 Q 1066.5 900 1422 3080" opacity="0.63"></path><path d="M 0 3010 Q 355.5 -100 711 400 Q 1066.5 900 1422 3010" opacity="0.64"></path><path d="M 0 2940 Q 355.5 -100 711 400 Q 1066.5 900 1422 2940" opacity="0.65"></path><path d="M 0 2870 Q 355.5 -100 711 400 Q 1066.5 900 1422 2870" opacity="0.65"></path><path d="M 0 2800 Q 355.5 -100 711 400 Q 1066.5 900 1422 2800" opacity="0.66"></path><path d="M 0 2730 Q 355.5 -100 711 400 Q 1066.5 900 1422 2730" opacity="0.67"></path><path d="M 0 2660 Q 355.5 -100 711 400 Q 1066.5 900 1422 2660" opacity="0.68"></path><path d="M 0 2590 Q 355.5 -100 711 400 Q 1066.5 900 1422 2590" opacity="0.69"></path><path d="M 0 2520 Q 355.5 -100 711 400 Q 1066.5 900 1422 2520" opacity="0.70"></path><path d="M 0 2450 Q 355.5 -100 711 400 Q 1066.5 900 1422 2450" opacity="0.71"></path><path d="M 0 2380 Q 355.5 -100 711 400 Q 1066.5 900 1422 2380" opacity="0.71"></path><path d="M 0 2310 Q 355.5 -100 711 400 Q 1066.5 900 1422 2310" opacity="0.72"></path><path d="M 0 2240 Q 355.5 -100 711 400 Q 1066.5 900 1422 2240" opacity="0.73"></path><path d="M 0 2170 Q 355.5 -100 711 400 Q 1066.5 900 1422 2170" opacity="0.74"></path><path d="M 0 2100 Q 355.5 -100 711 400 Q 1066.5 900 1422 2100" opacity="0.75"></path><path d="M 0 2030 Q 355.5 -100 711 400 Q 1066.5 900 1422 2030" opacity="0.76"></path><path d="M 0 1960 Q 355.5 -100 711 400 Q 1066.5 900 1422 1960" opacity="0.77"></path><path d="M 0 1890 Q 355.5 -100 711 400 Q 1066.5 900 1422 1890" opacity="0.78"></path><path d="M 0 1820 Q 355.5 -100 711 400 Q 1066.5 900 1422 1820" opacity="0.78"></path><path d="M 0 1750 Q 355.5 -100 711 400 Q 1066.5 900 1422 1750" opacity="0.79"></path><path d="M 0 1680 Q 355.5 -100 711 400 Q 1066.5 900 1422 1680" opacity="0.80"></path><path d="M 0 1610 Q 355.5 -100 711 400 Q 1066.5 900 1422 1610" opacity="0.81"></path><path d="M 0 1540 Q 355.5 -100 711 400 Q 1066.5 900 1422 1540" opacity="0.82"></path><path d="M 0 1470 Q 355.5 -100 711 400 Q 1066.5 900 1422 1470" opacity="0.83"></path><path d="M 0 1400 Q 355.5 -100 711 400 Q 1066.5 900 1422 1400" opacity="0.84"></path><path d="M 0 1330 Q 355.5 -100 711 400 Q 1066.5 900 1422 1330" opacity="0.84"></path><path d="M 0 1260 Q 355.5 -100 711 400 Q 1066.5 900 1422 1260" opacity="0.85"></path><path d="M 0 1190 Q 355.5 -100 711 400 Q 1066.5 900 1422 1190" opacity="0.86"></path><path d="M 0 1120 Q 355.5 -100 711 400 Q 1066.5 900 1422 1120" opacity="0.87"></path><path d="M 0 1050 Q 355.5 -100 711 400 Q 1066.5 900 1422 1050" opacity="0.88"></path><path d="M 0 980 Q 355.5 -100 711 400 Q 1066.5 900 1422 980" opacity="0.89"></path><path d="M 0 910 Q 355.5 -100 711 400 Q 1066.5 900 1422 910" opacity="0.90"></path><path d="M 0 840 Q 355.5 -100 711 400 Q 1066.5 900 1422 840" opacity="0.91"></path><path d="M 0 770 Q 355.5 -100 711 400 Q 1066.5 900 1422 770" opacity="0.91"></path><path d="M 0 700 Q 355.5 -100 711 400 Q 1066.5 900 1422 700" opacity="0.92"></path><path d="M 0 630 Q 355.5 -100 711 400 Q 1066.5 900 1422 630" opacity="0.93"></path><path d="M 0 560 Q 355.5 -100 711 400 Q 1066.5 900 1422 560" opacity="0.94"></path><path d="M 0 490 Q 355.5 -100 711 400 Q 1066.5 900 1422 490" opacity="0.95"></path><path d="M 0 420 Q 355.5 -100 711 400 Q 1066.5 900 1422 420" opacity="0.96"></path><path d="M 0 350 Q 355.5 -100 711 400 Q 1066.5 900 1422 350" opacity="0.97"></path><path d="M 0 280 Q 355.5 -100 711 400 Q 1066.5 900 1422 280" opacity="0.97"></path><path d="M 0 210 Q 355.5 -100 711 400 Q 1066.5 900 1422 210" opacity="0.98"></path><path d="M 0 140 Q 355.5 -100 711 400 Q 1066.5 900 1422 140" opacity="0.99"></path></g></svg>